<svg width="1026" height="160" viewBox="0 0 1026 160" fill="none" xmlns="http://www.w3.org/2000/svg">
<path d="M348.91 32.32C348.91 14.92 334.75 0.76001 317.35 0.76001H228.22C210.82 0.76001 196.66 14.92 196.66 32.32C196.66 41.58 200.77 50.25 207.59 56.16C200.77 62.07 196.66 70.74 196.66 80C196.66 89.26 200.77 97.93 207.59 103.84C200.77 109.75 196.66 118.42 196.66 127.68C196.66 145.08 210.82 159.24 228.22 159.24H317.35C334.75 159.24 348.91 145.08 348.91 127.68C348.91 118.42 344.8 109.75 337.98 103.84C344.8 97.93 348.91 89.26 348.91 80C348.91 70.74 344.8 62.07 337.98 56.16C344.8 50.25 348.91 41.58 348.91 32.32ZM343.55 80C343.55 90.59 337.22 99.71 328.16 103.84C337.22 107.97 343.55 117.09 343.55 127.68C343.55 142.13 331.79 153.88 317.35 153.88H228.22C213.77 153.88 202.02 142.13 202.02 127.68C202.02 117.09 208.35 107.97 217.41 103.84C208.35 99.71 202.02 90.59 202.02 80C202.02 69.41 208.35 60.29 217.41 56.16C208.35 52.03 202.02 42.91 202.02 32.32C202.02 17.87 213.77 6.12 228.22 6.12H317.35C331.8 6.12 343.55 17.87 343.55 32.32C343.55 42.91 337.22 52.03 328.16 56.16C337.23 60.29 343.55 69.41 343.55 80Z" fill="white"/>
<path d="M317.35 11.47H228.22C216.71 11.47 207.37 20.8 207.37 32.32C207.37 43.83 216.7 53.17 228.22 53.17H317.35C328.86 53.17 338.2 43.84 338.2 32.32C338.2 20.81 328.86 11.47 317.35 11.47Z" fill="white"/>
<path d="M228.22 59.1499C216.71 59.1499 207.37 68.4799 207.37 79.9999C207.37 91.5199 216.7 100.85 228.22 100.85H317.35C328.86 100.85 338.2 91.5199 338.2 79.9999C338.2 68.4799 328.87 59.1499 317.35 59.1499H228.22Z" fill="white"/>
<path d="M228.22 106.84C216.71 106.84 207.37 116.17 207.37 127.69C207.37 139.2 216.7 148.54 228.22 148.54H317.35C328.86 148.54 338.2 139.21 338.2 127.69C338.2 116.18 328.87 106.84 317.35 106.84H228.22Z" fill="white"/>
<path d="M645.37 92.53H593.19V35.52C593.19 17.13 578.23 2.15991 559.83 2.15991C541.44 2.15991 526.47 17.12 526.47 35.52V123.78C526.47 143.34 542.38 159.25 561.94 159.25H645.37C663.76 159.25 678.73 144.29 678.73 125.89C678.73 107.49 663.76 92.53 645.37 92.53ZM645.37 153.88H561.94C545.34 153.88 531.83 140.37 531.83 123.77V35.5099C531.83 20.0699 544.39 7.50995 559.83 7.50995C575.27 7.50995 587.83 20.0699 587.83 35.5099V97.8799H645.37C660.81 97.8799 673.37 110.44 673.37 125.88C673.37 141.32 660.81 153.88 645.37 153.88Z" fill="white"/>
<path d="M645.37 103.24H582.47V35.5099C582.47 23.0099 572.33 12.8699 559.83 12.8699C547.32 12.8699 537.19 23.0099 537.19 35.5099V123.77C537.19 137.44 548.27 148.52 561.94 148.52H645.37C657.87 148.52 668.01 138.38 668.01 125.88C668.01 113.38 657.88 103.24 645.37 103.24Z" fill="white"/>
<path d="M1025.07 90.4099V35.53C1025.07 26.64 1021.61 18.26 1015.32 11.95C1009.01 5.63995 1000.62 2.16992 991.7 2.16992C973.31 2.16992 958.35 17.1399 958.35 35.5399V61.4999H934.18V35.5399C934.18 26.6499 930.72 18.27 924.43 11.96C918.12 5.64996 909.73 2.17993 900.81 2.17993C882.42 2.17993 867.46 17.1499 867.46 35.5499V94.8799C867.46 113.27 882.43 128.23 900.83 128.23H913.13C913.68 136.27 917.07 143.75 922.82 149.5C929.15 155.8 937.53 159.27 946.42 159.27C964.04 159.27 978.51 145.55 979.71 128.23H992.01C1000.93 128.23 1009.31 124.76 1015.61 118.46C1020.56 113.51 1023.78 107.26 1024.93 100.39C1025.23 98.53 1025.38 96.6799 1025.38 94.8699C1025.38 93.3799 1025.28 91.8899 1025.07 90.4099ZM1019.64 99.4899C1018.68 105.25 1015.98 110.49 1011.82 114.65C1006.53 119.94 999.5 122.85 992.01 122.85H974.43V125.88C974.43 141.32 961.87 153.89 946.42 153.89C938.95 153.89 931.92 150.98 926.61 145.69C921.32 140.4 918.41 133.37 918.41 125.88V122.85H900.83C885.39 122.85 872.82 110.29 872.82 94.8599V35.53C872.82 20.09 885.38 7.51996 900.81 7.51996C908.3 7.51996 915.34 10.4299 920.63 15.7299C925.91 21.0299 928.82 28.07 928.82 35.53V66.8499H963.71V35.53C963.71 20.09 976.27 7.51996 991.7 7.51996C999.19 7.51996 1006.23 10.4299 1011.52 15.7299C1016.8 21.0299 1019.71 28.07 1019.71 35.53V90.7899C1019.91 92.1499 1020.02 93.5099 1020.02 94.8599C1020.02 96.3799 1019.9 97.9299 1019.64 99.4899Z" fill="white"/>
<path d="M1014.36 35.53C1014.36 29.28 1011.83 23.62 1007.73 19.51C1003.57 15.35 997.78 12.8 991.41 12.88C978.92 13.04 969.07 23.65 969.07 36.14V70.42C969.07 71.41 968.27 72.22 967.27 72.22H925.26C924.27 72.22 923.46 71.42 923.46 70.42V35.54C923.46 29.29 920.93 23.63 916.83 19.52C912.67 15.36 906.88 12.81 900.51 12.89C888.02 13.05 878.17 23.66 878.17 36.15V94.81C878.17 107.34 888.33 117.5 900.86 117.5H923.45C923.62 117.5 923.76 117.64 923.76 117.81V125.89C923.76 132.16 926.29 137.82 930.39 141.91C934.55 146.06 940.3 148.6 946.64 148.54C959.16 148.42 969.06 137.79 969.06 125.27V117.74C969.06 117.63 969.14 117.55 969.25 117.54C971.45 117.52 992 117.5 992 117.5C998.25 117.5 1003.93 114.97 1008.02 110.87C1011.27 107.62 1013.55 103.36 1014.34 98.62C1014.54 97.4 1014.65 96.14 1014.65 94.87C1014.65 93.63 1014.54 92.41 1014.34 91.23C1014.34 91.23 1014.34 91.23 1014.34 91.22V35.53H1014.36Z" fill="white"/>
<path d="M810.96 22.0599C805.99 10.4399 794.6 2.92993 781.94 2.92993C777.66 2.92993 773.48 3.78993 769.52 5.48993L766.31 6.85992C758.58 10.1699 752.59 16.2999 749.44 24.1299C746.34 31.9099 746.42 40.4099 749.65 48.0999C748.91 48.0499 748.17 48.03 747.43 48.03C734.73 48.03 723.37 55.2999 718.47 66.5599L695.99 114.46L695.92 114.6L695.8 114.88L695.79 114.91C692.61 122.36 692.54 130.69 695.61 138.38C698.87 146.54 705.19 152.98 713.42 156.5C717.7 158.32 722.15 159.24 726.67 159.24C727.44 159.24 728.13 159.22 728.79 159.17C731.55 159.19 745.45 159.2 818.59 159.22C824.01 159.22 829.37 157.81 834.1 155.14C849.84 148.16 857.11 129.71 850.31 113.85L810.96 22.0599ZM831.68 150.35C827.7 152.65 823.18 153.87 818.59 153.87C743.3 153.85 730.78 153.83 728.6 153.82C727.96 153.87 727.31 153.89 726.67 153.89C722.83 153.89 719.1 153.1 715.52 151.59C701.71 145.68 695.07 130.14 700.73 116.97L700.77 116.88L700.81 116.81L723.35 68.78C727.39 59.44 736.84 53.4 747.43 53.4C751.27 53.4 755.02 54.17 758.58 55.7C758.65 55.74 758.7 55.7499 758.78 55.7899L754.67 46.2C751.92 39.77 751.83 32.64 754.42 26.14C757.03 19.66 761.99 14.5499 768.42 11.7999L771.63 10.4299C774.92 9.01993 778.38 8.29993 781.94 8.29993C792.44 8.29993 801.91 14.5299 806.04 24.1799L845.39 115.97C851.06 129.22 844.92 144.63 831.68 150.35Z" fill="white"/>
<path d="M801.11 26.29C796.57 15.71 784.32 10.81 773.74 15.34L770.53 16.71C759.95 21.25 755.05 33.5 759.58 44.08L783.85 100.7C784.04 101.13 783.72 101.62 783.24 101.62H763.19C762.71 101.62 762.39 101.12 762.59 100.68L768.45 88.2C772.94 77.73 767.57 65.38 756.46 60.62C745.35 55.86 732.71 60.49 728.22 70.96L705.64 119.07C701.15 129.54 706.52 141.89 717.63 146.65C721.16 148.16 724.84 148.72 728.37 148.45C728.73 148.47 818.58 148.5 818.58 148.5C822.48 148.5 826.12 147.41 829.25 145.54L829.49 145.44C840.07 140.91 844.98 128.66 840.44 118.08L801.11 26.29Z" fill="white"/>
<path d="M150.48 3.01001H149.21C131.78 3.01001 117.65 17.14 117.65 34.57V51.29L115.76 49.74C109.24 44.41 101 41.47 92.55 41.47C92.07 41.47 91.6 41.48 91.12 41.5C90.64 41.48 90.17 41.47 89.69 41.47C81.24 41.47 73 44.41 66.48 49.74L65.02 50.93V34.57C65.02 17.14 50.89 3.01001 33.46 3.01001H32.19C14.76 3.01001 0.630005 17.14 0.630005 34.57V127.68C0.630005 145.11 14.76 159.24 32.19 159.24H33.46C38.13 159.24 42.66 158.22 46.92 156.2L47 156.16L47.16 156.08C56.03 151.54 76.91 135.47 89.39 125.64C90.47 124.79 91.98 124.78 93.07 125.62C110.47 139 130.27 153.78 136.19 156.4C140.29 158.27 144.69 159.23 149.22 159.23H150.49C167.92 159.23 182.05 145.1 182.05 127.67V34.56C182.04 17.14 167.91 3.01001 150.48 3.01001ZM176.68 127.68C176.68 142.15 164.95 153.88 150.48 153.88H149.21C145.45 153.88 141.8 153.08 138.35 151.51C132.39 148.87 108.15 130.48 95.06 120.41C92.77 118.65 89.58 118.67 87.31 120.46C75.77 129.58 53.56 146.79 44.78 151.29L44.7 151.33L44.62 151.37C41.08 153.04 37.32 153.89 33.44 153.89H32.17C17.7 153.89 5.96997 142.16 5.96997 127.69V34.58C5.96997 20.11 17.7 8.38 32.17 8.38H33.44C47.91 8.38 59.64 20.11 59.64 34.58V62.25L69.85 53.89C75.41 49.34 82.45 46.83 89.67 46.83C90.15 46.83 90.62 46.84 91.1 46.86C91.58 46.84 92.05 46.83 92.53 46.83C99.75 46.83 106.78 49.34 112.35 53.89L123 62.6V34.57C123 20.1 134.73 8.37 149.2 8.37H150.47C164.94 8.37 176.67 20.1 176.67 34.57V127.68H176.68Z" fill="white"/>
<path d="M150.48 13.73H149.21C137.7 13.73 128.36 23.06 128.36 34.58V64.44C128.36 68.23 123.96 70.32 121.02 67.92L108.96 58.05C103.74 53.78 97.35 51.9 91.11 52.24C84.86 51.9 78.48 53.78 73.26 58.05L61.63 67.57C58.7 69.97 54.29 67.88 54.29 64.09V34.59C54.29 23.08 44.96 13.74 33.44 13.74H32.17C20.66 13.74 11.32 23.07 11.32 34.59V127.7C11.32 139.21 20.65 148.55 32.17 148.55H33.44C36.62 148.55 39.63 147.82 42.33 146.54C51.21 141.99 75.5 123 86.08 114.61C89.04 112.26 93.22 112.23 96.21 114.54C107.69 123.39 135 144.24 140.54 146.64C143.18 147.85 146.11 148.55 149.21 148.55H150.48C161.99 148.55 171.33 139.22 171.33 127.7V34.59C171.32 23.06 161.99 13.73 150.48 13.73Z" fill="white"/>
<path d="M501.18 33.9899V74.4999C501.18 86.5399 491.58 96.2999 479.73 96.2999C479.48 96.2999 430.59 96.3099 417.74 96.3099C416.04 96.3099 414.66 97.7099 414.66 99.4399V127.03C414.66 139.13 405.22 149.35 393.33 149.41H393.21C387.28 149.41 381.94 146.96 378.05 143.02C374.18 139.07 371.76 133.61 371.76 127.61V82.83C371.76 70.77 381.38 60.9999 393.25 60.9999H455.18C456.89 60.9999 458.27 59.5899 458.27 57.8599V56.83C458.27 55.1 456.89 53.7 455.19 53.7H391.37C380.54 53.7 371.76 44.7699 371.76 33.7599C371.76 21.7199 381.36 11.96 393.21 11.96C394.19 11.96 479.73 12.1799 479.73 12.1799C491.58 12.1899 501.18 21.9599 501.18 33.9899Z" fill="white"/>
<path d="M479.74 4.8299C476.82 4.8199 394.33 4.60986 393.21 4.60986C377.39 4.60986 364.52 17.6899 364.52 33.7699C364.52 43.8399 370.08 53.0299 378.56 57.7399C369.99 62.9399 364.52 72.4299 364.52 82.8299V127.61C364.52 135.38 367.5 142.69 372.93 148.21C378.37 153.73 385.57 156.77 393.21 156.77H393.37C409.11 156.68 421.9 143.35 421.9 127.03V103.67L479.73 103.66C495.55 103.66 508.42 90.5799 508.42 74.4999V33.9999C508.42 17.9099 495.55 4.8299 479.74 4.8299ZM506.01 74.5099C506.01 89.2299 494.23 101.22 479.73 101.22H477.59C468.43 101.22 432.58 101.23 419.48 101.23V127.04C419.48 142.01 407.76 154.25 393.35 154.33H393.21C386.22 154.33 379.62 151.54 374.63 146.49C369.67 141.43 366.93 134.72 366.93 127.62V82.8399C366.93 71.2099 374.28 61.2799 384.5 57.6099C374.36 54.5899 366.93 45.0499 366.93 33.7699C366.93 19.0299 378.72 7.05988 393.21 7.05988C394.19 7.05988 476.25 7.26991 479.73 7.27991C494.23 7.27991 506.01 19.2599 506.01 33.9899V74.5099V74.5099Z" fill="white"/>
<path d="M479.73 2.37994C476.82 2.36994 394.33 2.15991 393.21 2.15991C376.06 2.15991 362.1 16.34 362.1 33.78C362.1 43.42 366.77 52.32 374.18 57.83C366.71 63.72 362.1 72.8999 362.1 82.8499V127.63C362.1 136.05 365.33 143.97 371.21 149.96C377.11 155.95 384.92 159.25 393.2 159.25H393.34C410.42 159.16 424.3 144.72 424.3 127.05V106.14C431.92 106.14 442.92 106.14 453.12 106.13H479.71C496.86 106.13 510.82 91.9499 510.82 74.5099V33.9999C510.84 16.5599 496.88 2.37994 479.73 2.37994ZM506.01 74.5099C506.01 89.2299 494.23 101.22 479.73 101.22H477.59C468.43 101.22 432.58 101.23 419.48 101.23V127.04C419.48 142.01 407.76 154.25 393.35 154.33H393.21C386.22 154.33 379.62 151.54 374.63 146.49C369.67 141.43 366.93 134.72 366.93 127.62V82.84C366.93 71.21 374.28 61.2799 384.5 57.6099C374.36 54.5899 366.93 45.05 366.93 33.77C366.93 19.03 378.72 7.05994 393.21 7.05994C394.19 7.05994 476.25 7.26997 479.73 7.27997C494.23 7.27997 506.01 19.2599 506.01 33.9899V74.5099V74.5099Z" fill="white"/>
</svg>
