<svg width="24" height="24" viewBox="0 0 24 24" fill="none" xmlns="http://www.w3.org/2000/svg">
<path d="M12 22C17.5228 22 22 17.5228 22 12C22 6.47715 17.5228 2 12 2C6.47715 2 2 6.47715 2 12C2 17.5228 6.47715 22 12 22Z" stroke="#191919" stroke-width="2" stroke-linecap="round" stroke-linejoin="round"/>
<path fill-rule="evenodd" clip-rule="evenodd" d="M13.9663 7.76186C14.3574 8.15183 14.3583 8.785 13.9683 9.17607L11.1524 12L13.9683 14.8239C14.3583 15.2149 14.3574 15.8481 13.9663 16.2381C13.5753 16.628 12.9421 16.6272 12.5521 16.2361L9.03213 12.7061C8.64294 12.3158 8.64294 11.6842 9.03213 11.2939L12.5521 7.76387C12.9421 7.37279 13.5753 7.37189 13.9663 7.76186Z" fill="#191919"/>
</svg>
