<svg width="24" height="24" viewBox="0 0 24 24" fill="none" xmlns="http://www.w3.org/2000/svg">
<path d="M12 22C17.5228 22 22 17.5228 22 12C22 6.47715 17.5228 2 12 2C6.47715 2 2 6.47715 2 12C2 17.5228 6.47715 22 12 22Z" stroke="#191919" stroke-width="2" stroke-linecap="round" stroke-linejoin="round"/>
<path fill-rule="evenodd" clip-rule="evenodd" d="M10.0341 7.76186C10.4252 7.37189 11.0584 7.37279 11.4483 7.76387L14.9683 11.2939C15.3575 11.6842 15.3575 12.3158 14.9683 12.7061L11.4483 16.2361C11.0584 16.6272 10.4252 16.628 10.0341 16.2381C9.64305 15.8481 9.64216 15.2149 10.0321 14.8239L12.848 12L10.0321 9.17607C9.64216 8.785 9.64305 8.15183 10.0341 7.76186Z" fill="#191919"/>
</svg>
