<svg width="66" height="66" viewBox="0 0 66 66" fill="none" xmlns="http://www.w3.org/2000/svg">
<path d="M38.4999 13.75C38.4999 15.2075 37.9334 16.533 37.0067 17.5175L44.2227 26.5375C44.3208 26.6606 44.4581 26.7463 44.6117 26.7804C44.7654 26.8144 44.9261 26.7947 45.0669 26.7245L52.3544 23.078C52.197 22.2802 52.2181 21.4574 52.4161 20.6686C52.6142 19.8799 52.9844 19.1448 53.5002 18.516C54.0159 17.8872 54.6644 17.3804 55.3992 17.0318C56.1339 16.6833 56.9367 16.5017 57.7499 16.5C59.1021 16.5003 60.4067 16.9986 61.4147 17.8998C62.4227 18.8011 63.0634 20.042 63.2144 21.3856C63.3654 22.7293 63.0162 24.0815 62.2335 25.184C61.4507 26.2865 60.2893 27.0621 58.9709 27.3625L54.0099 53.8258C53.8028 54.9288 53.2167 55.9247 52.353 56.6413C51.4892 57.3579 50.4022 57.75 49.2799 57.75H16.7199C15.5977 57.75 14.5107 57.3579 13.6469 56.6413C12.7832 55.9247 12.1971 54.9288 11.9899 53.8258L7.02895 27.3625C5.97456 27.122 5.01448 26.576 4.26875 25.7927C3.52303 25.0095 3.02477 24.0238 2.83627 22.9589C2.64777 21.894 2.7774 20.7971 3.20896 19.8055C3.64052 18.8139 4.35484 17.9715 5.2626 17.3836C6.17037 16.7958 7.23129 16.4887 8.31269 16.5006C9.39409 16.5125 10.448 16.843 11.3426 17.4506C12.2372 18.0583 12.9327 18.9163 13.3423 19.9172C13.7519 20.9181 13.8574 22.0175 13.6454 23.078L20.9329 26.7245C21.0738 26.7947 21.2345 26.8144 21.3882 26.7804C21.5418 26.7463 21.6791 26.6606 21.7772 26.5375L28.9932 17.5175C28.3785 16.8638 27.933 16.0696 27.6957 15.2042C27.4584 14.3388 27.4365 13.4285 27.6318 12.5527C27.8271 11.6768 28.2337 10.8621 28.8162 10.1795C29.3987 9.49693 30.1394 8.96723 30.9736 8.63663C31.8078 8.30603 32.7103 8.18457 33.6022 8.28283C34.4942 8.3811 35.3485 8.69611 36.0908 9.20039C36.833 9.70467 37.4406 10.3829 37.8605 11.1759C38.2805 11.9689 38.5 12.8527 38.4999 13.75ZM32.9999 46.75C34.4586 46.75 35.8576 46.1705 36.889 45.1391C37.9205 44.1076 38.4999 42.7087 38.4999 41.25C38.4999 39.7913 37.9205 38.3924 36.889 37.3609C35.8576 36.3295 34.4586 35.75 32.9999 35.75C31.5413 35.75 30.1423 36.3295 29.1109 37.3609C28.0794 38.3924 27.4999 39.7913 27.4999 41.25C27.4999 42.7087 28.0794 44.1076 29.1109 45.1391C30.1423 46.1705 31.5413 46.75 32.9999 46.75Z" fill="white"/>
</svg>
