<svg width="24" height="24" viewBox="0 0 24 24" fill="none" xmlns="http://www.w3.org/2000/svg">
<g id="ant-design:delete-outlined">
<path id="Vector" d="M8.83333 5.44H8.66667C8.75833 5.44 8.83333 5.368 8.83333 5.28V5.44L15.1667 5.44V5.28C15.1667 5.368 15.2417 5.44 15.3333 5.44H15.1667V6.88H16.6667V5.28C16.6667 4.574 16.0688 4 15.3333 4L8.66667 4C7.93125 4 7.33333 4.574 7.33333 5.28V6.88H8.83333V5.44ZM19.3333 6.88L4.66667 6.88C4.29792 6.88 4 7.166 4 7.52L4 8.16C4 8.248 4.075 8.32 4.16667 8.32H5.425L5.93958 18.78C5.97292 19.462 6.56042 20 7.27083 20H16.7292C17.4417 20 18.0271 19.464 18.0604 18.78L18.575 8.32H19.8333C19.925 8.32 20 8.248 20 8.16V7.52C20 7.166 19.7021 6.88 19.3333 6.88ZM16.5688 18.56H7.43125L6.92708 8.32L17.0729 8.32L16.5688 18.56Z" fill="#EF4343"/>
</g>
</svg>
