<svg width="24" height="25" viewBox="0 0 24 25" fill="none" xmlns="http://www.w3.org/2000/svg">
<path d="M3 6.5H5H21" stroke="#B3B3B3" stroke-linecap="round" stroke-linejoin="round"/>
<path d="M8.00098 6.49988V4.49988C8.00098 3.96944 8.21169 3.46074 8.58676 3.08566C8.96184 2.71059 9.47054 2.49988 10.001 2.49988H14.001C14.5314 2.49988 15.0401 2.71059 15.4152 3.08566C15.7903 3.46074 16.001 3.96944 16.001 4.49988V6.49988M19.001 6.49988V20.4999C19.001 21.0303 18.7903 21.539 18.4152 21.9141C18.0401 22.2892 17.5314 22.4999 17.001 22.4999H7.00098C6.47054 22.4999 5.96184 22.2892 5.58676 21.9141C5.21169 21.539 5.00098 21.0303 5.00098 20.4999V6.49988H19.001Z" stroke="#B3B3B3" stroke-linecap="round" stroke-linejoin="round"/>
<path d="M9.99902 11.4999V17.4999" stroke="#B3B3B3" stroke-linecap="round" stroke-linejoin="round"/>
<path d="M14.001 11.4999V17.4999" stroke="#B3B3B3" stroke-linecap="round" stroke-linejoin="round"/>
</svg>
