<svg xmlns="http://www.w3.org/2000/svg" width="24" height="25" viewBox="0 0 24 25" fill="none">
<path d="M8.83333 5.94H8.66667C8.75833 5.94 8.83333 5.868 8.83333 5.78V5.94L15.1667 5.94V5.78C15.1667 5.868 15.2417 5.94 15.3333 5.94H15.1667V7.38H16.6667V5.78C16.6667 5.074 16.0688 4.5 15.3333 4.5L8.66667 4.5C7.93125 4.5 7.33333 5.074 7.33333 5.78V7.38H8.83333V5.94ZM19.3333 7.38L4.66667 7.38C4.29792 7.38 4 7.666 4 8.02L4 8.66C4 8.748 4.075 8.82 4.16667 8.82H5.425L5.93958 19.28C5.97292 19.962 6.56042 20.5 7.27083 20.5H16.7292C17.4417 20.5 18.0271 19.964 18.0604 19.28L18.575 8.82H19.8333C19.925 8.82 20 8.748 20 8.66V8.02C20 7.666 19.7021 7.38 19.3333 7.38ZM16.5688 19.06H7.43125L6.92708 8.82L17.0729 8.82L16.5688 19.06Z" fill="#FF3333"/>
</svg>