<svg width="24" height="25" viewBox="0 0 24 25" fill="none" xmlns="http://www.w3.org/2000/svg">
<path d="M8 13.5L12.2277 16.8821C12.6556 17.2245 13.2793 17.1586 13.6263 16.7345L22 6.5" stroke="#B3B3B3" stroke-width="2" stroke-linecap="round"/>
<path fill-rule="evenodd" clip-rule="evenodd" d="M11.1893 12.7368L15.774 7.13327C16.1237 6.70582 16.0607 6.0758 15.6333 5.72607C15.2059 5.37635 14.5758 5.43935 14.2261 5.86679L9.65279 11.4564L11.1893 12.7368ZM8.02298 16.6068L6.48647 15.3263L5.83315 16.1248L2.60006 13.7C2.15823 13.3687 1.53143 13.4582 1.20006 13.9C0.868688 14.3419 0.958231 14.9687 1.40006 15.3L4.63315 17.7248C5.49053 18.3679 6.7024 18.2208 7.38106 17.3913L8.02298 16.6068Z" fill="#B3B3B3"/>
</svg>
