<svg width="21" height="21" viewBox="0 0 21 21" fill="none" xmlns="http://www.w3.org/2000/svg">
<path d="M4.14583 2.73011C3.85833 2.73011 3.625 2.96345 3.625 3.25095V18.0426C3.625 18.1807 3.67987 18.3132 3.77755 18.4109C3.87522 18.5086 4.0077 18.5634 4.14583 18.5634C4.28397 18.5634 4.41644 18.5086 4.51412 18.4109C4.61179 18.3132 4.66667 18.1807 4.66667 18.0426V13.9801H9.73042C10.1312 11.3843 12.375 9.39678 15.0833 9.39678C15.1739 9.39678 15.2642 9.399 15.3542 9.40345L14.5833 8.35511L18.1067 3.55928C18.1636 3.48172 18.198 3.3899 18.206 3.29399C18.2139 3.19809 18.1951 3.10185 18.1517 3.01597C18.1083 2.93009 18.0419 2.85791 17.96 2.80745C17.8781 2.75699 17.7837 2.73022 17.6875 2.73011H4.14583ZM19.6667 14.8134C19.6667 17.3447 17.6146 19.3968 15.0833 19.3968C12.5521 19.3968 10.5 17.3447 10.5 14.8134C10.5 12.2822 12.5521 10.2301 15.0833 10.2301C17.6146 10.2301 19.6667 12.2822 19.6667 14.8134ZM17.5833 14.8134C17.5833 14.7029 17.5394 14.597 17.4613 14.5188C17.3832 14.4407 17.2772 14.3968 17.1667 14.3968H15.5V11.8968C15.5 11.7863 15.4561 11.6803 15.378 11.6022C15.2998 11.524 15.1938 11.4801 15.0833 11.4801C14.9728 11.4801 14.8668 11.524 14.7887 11.6022C14.7106 11.6803 14.6667 11.7863 14.6667 11.8968V14.8134C14.6667 14.924 14.7106 15.0299 14.7887 15.1081C14.8668 15.1862 14.9728 15.2301 15.0833 15.2301H17.1667C17.2772 15.2301 17.3832 15.1862 17.4613 15.1081C17.5394 15.0299 17.5833 14.924 17.5833 14.8134Z" fill="#FFB41F"/>
</svg>
