<svg width="24" height="25" viewBox="0 0 24 25" fill="none" xmlns="http://www.w3.org/2000/svg">
<path d="M11.9999 21.0714C16.7338 21.0714 20.5713 17.2339 20.5713 12.5C20.5713 7.76615 16.7338 3.92859 11.9999 3.92859C7.26603 3.92859 3.42847 7.76615 3.42847 12.5C3.42847 17.2339 7.26603 21.0714 11.9999 21.0714Z" stroke="#E6E6E6" stroke-width="2" stroke-linecap="round" stroke-linejoin="round"/>
<path d="M9.50562 9.92857C9.70713 9.35572 10.1049 8.87266 10.6284 8.56497C11.152 8.25728 11.7675 8.1448 12.3661 8.24747C12.9646 8.35013 13.5075 8.66131 13.8985 9.12588C14.2896 9.59046 14.5037 10.1784 14.5028 10.7857C14.5028 12.5 11.9313 13.3571 11.9313 13.3571" stroke="#E6E6E6" stroke-width="2" stroke-linecap="round" stroke-linejoin="round"/>
<circle cx="12" cy="16.7857" r="0.5" stroke="#E6E6E6" stroke-width="0.714285"/>
</svg>
