<svg xmlns="http://www.w3.org/2000/svg" width="170" height="176" viewBox="0 0 170 176" fill="none">
<path fill-rule="evenodd" clip-rule="evenodd" d="M48.8648 25.7871C34.4171 18.943 19.1559 13.0703 7.51598 1.61772C6.82071 0.938406 5.7044 0.984732 5.01471 1.72858C4.33143 2.47527 4.33319 3.63033 5.02548 4.31639C16.9383 16.0352 32.5091 22.1257 47.2933 29.127C48.1654 29.5456 49.2309 29.1297 49.6626 28.207C50.1008 27.2871 49.7369 26.2057 48.8648 25.7871Z" fill="#D3CCFF" fill-opacity="0.1"/>
<path fill-rule="evenodd" clip-rule="evenodd" d="M31.5995 102.524C26.1707 109.14 19.4448 113.217 11.2542 114.685C10.2884 114.858 9.60785 115.806 9.74125 116.803C9.86824 117.796 10.7602 118.464 11.726 118.291C20.7916 116.664 28.2445 112.157 34.2556 104.832C34.9012 104.049 34.8234 102.893 34.0932 102.258C33.3569 101.619 32.2387 101.739 31.5995 102.524Z" fill="#D3CCFF" fill-opacity="0.1"/>
<path fill-rule="evenodd" clip-rule="evenodd" d="M99.0377 144.642C100.963 143.652 102.813 142.485 104.544 141.138C105.315 140.539 106.799 139.196 107.55 137.813C108.354 136.342 108.432 134.834 107.465 133.594C106.179 131.947 104.792 131.445 103.513 131.53C102.282 131.61 101.045 132.292 99.9412 133.451C97.8328 135.668 96.1907 139.755 95.6664 142.271C93.7019 143.125 91.6687 143.787 89.5973 144.26C74.1687 147.778 58.5743 137.052 51.219 118.315C48.6457 111.755 50.6569 101.265 54.0577 90.491C59.3511 73.7155 68.278 56.3144 70.7359 51.1465C71.3401 49.8692 71.5644 49.0515 71.5682 48.87C71.6007 47.9835 71.1557 47.5523 70.817 47.3135C70.3237 46.9739 69.8468 46.8917 69.4171 46.9274C68.8347 46.9794 68.2482 47.2653 67.7571 47.8896C67.4888 48.2357 67.2235 48.7656 66.9807 49.3482C66.8163 49.754 66.6994 50.2254 66.4955 50.4781C65.1822 52.0935 63.7855 53.6204 62.3959 55.1657C57.7392 60.3669 52.6752 64.9308 47.3323 69.3631C30.357 83.4475 13.2236 98.6847 -7.58634 105.926C-8.51967 106.251 -9.05668 107.29 -8.77582 108.248C-8.50136 109.202 -7.5173 109.714 -6.57726 109.391C14.6479 102.008 32.1639 86.5477 49.4769 72.1851C54.021 68.4144 58.3695 64.549 62.445 60.2963C58.2907 69.1725 52.8679 81.6044 49.564 93.2661C46.6249 103.637 45.4375 113.427 47.9386 119.804C55.9958 140.33 73.3327 151.689 90.2293 147.832C92.037 147.419 93.8253 146.876 95.5659 146.199C96.6116 161.777 108.59 173.142 123.835 172.666C124.814 172.637 125.61 171.792 125.62 170.783C125.623 169.772 124.841 168.978 123.862 169.007C110.124 169.435 99.433 158.886 99.0377 144.642ZM99.9828 140C100.844 139.458 101.679 138.87 102.494 138.242C102.927 137.903 103.715 137.231 104.258 136.472C104.384 136.293 104.526 135.99 104.588 135.848C104.248 135.423 103.951 135.159 103.603 135.183C103.17 135.211 102.799 135.563 102.412 135.969C101.44 136.986 100.589 138.529 99.9828 140Z" fill="#D3CCFF" fill-opacity="0.1"/>
</svg>