<svg width="24" height="24" viewBox="0 0 24 24" fill="none" xmlns="http://www.w3.org/2000/svg">
<path d="M9 6C9 6.39397 9.0776 6.78407 9.22836 7.14805C9.37913 7.51203 9.6001 7.84274 9.87868 8.12132C10.1573 8.3999 10.488 8.62087 10.852 8.77164C11.2159 8.9224 11.606 9 12 9C12.394 9 12.7841 8.9224 13.1481 8.77164C13.512 8.62087 13.8427 8.3999 14.1213 8.12132C14.3999 7.84274 14.6209 7.51203 14.7716 7.14805C14.9224 6.78407 15 6.39396 15 6C15 5.60603 14.9224 5.21593 14.7716 4.85195C14.6209 4.48797 14.3999 4.15725 14.1213 3.87868C13.8427 3.6001 13.512 3.37912 13.148 3.22836C12.7841 3.0776 12.394 3 12 3C11.606 3 11.2159 3.0776 10.8519 3.22836C10.488 3.37913 10.1573 3.6001 9.87868 3.87868C9.6001 4.15726 9.37912 4.48797 9.22836 4.85195C9.0776 5.21593 9 5.60604 9 6L9 6Z" stroke="#191919" stroke-width="2"/>
<path d="M4.43708 13.9015C4.0959 14.0985 3.79685 14.3607 3.55702 14.6733C3.31719 14.9858 3.14127 15.3426 3.0393 15.7231C2.93734 16.1037 2.91132 16.5006 2.96275 16.8912C3.01417 17.2818 3.14202 17.6584 3.339 17.9996C3.53599 18.3408 3.79824 18.6398 4.1108 18.8796C4.42335 19.1195 4.78008 19.2954 5.16062 19.3974C5.54117 19.4993 5.93806 19.5253 6.32866 19.4739C6.71925 19.4225 7.0959 19.2946 7.43708 19.0977C7.77827 18.9007 8.07731 18.6384 8.31714 18.3259C8.55697 18.0133 8.73289 17.6566 8.83486 17.276C8.93682 16.8955 8.96284 16.4986 8.91141 16.108C8.85999 15.7174 8.73214 15.3408 8.53516 14.9996C8.33817 14.6584 8.07592 14.3594 7.76336 14.1195C7.45081 13.8797 7.09408 13.7038 6.71354 13.6018C6.33299 13.4998 5.9361 13.4738 5.5455 13.5252C5.1549 13.5767 4.77826 13.7045 4.43708 13.9015L4.43708 13.9015Z" stroke="#191919" stroke-width="2"/>
<path d="M19.5629 13.9015C19.9041 14.0985 20.2031 14.3607 20.443 14.6733C20.6828 14.9859 20.8587 15.3426 20.9607 15.7231C21.0627 16.1037 21.0887 16.5006 21.0373 16.8912C20.9858 17.2818 20.858 17.6584 20.661 17.9996C20.464 18.3408 20.2018 18.6398 19.8892 18.8796C19.5766 19.1195 19.2199 19.2954 18.8394 19.3974C18.4588 19.4993 18.0619 19.5253 17.6713 19.4739C17.2807 19.4225 16.9041 19.2946 16.5629 19.0977C16.2217 18.9007 15.9227 18.6384 15.6829 18.3259C15.443 18.0133 15.2671 17.6566 15.1651 17.276C15.0632 16.8955 15.0372 16.4986 15.0886 16.108C15.14 15.7174 15.2679 15.3408 15.4648 14.9996C15.6618 14.6584 15.9241 14.3594 16.2366 14.1195C16.5492 13.8797 16.9059 13.7038 17.2865 13.6018C17.667 13.4998 18.0639 13.4738 18.4545 13.5252C18.8451 13.5767 19.2217 13.7045 19.5629 13.9015L19.5629 13.9015Z" stroke="#191919" stroke-width="2"/>
<path fill-rule="evenodd" clip-rule="evenodd" d="M9.0694 6.64338C9.02317 6.43269 8.99969 6.21713 8.99969 6.0004C8.99969 5.60643 9.07728 5.21632 9.22805 4.85235C9.29975 4.67925 9.38733 4.51367 9.48943 4.35765C9.17308 4.44954 8.86139 4.55892 8.55584 4.68548C7.46391 5.13777 6.47176 5.80071 5.63603 6.63644C4.80031 7.47216 4.13737 8.46432 3.68508 9.55625C3.23279 10.6482 3 11.8185 3 13.0004C3 13.7255 3.08762 14.4463 3.2598 15.1472C3.34385 14.9809 3.44342 14.8223 3.55744 14.6737C3.79727 14.3611 4.09632 14.0989 4.4375 13.9019C4.62524 13.7935 4.82372 13.706 5.02935 13.6407C5.00983 13.4282 5 13.2146 5 13.0004C5 12.0811 5.18106 11.1709 5.53284 10.3216C5.88462 9.47233 6.40024 8.70066 7.05025 8.05065C7.63541 7.46548 8.31918 6.98923 9.0694 6.64338ZM14.93 6.64312C15.6805 6.98899 16.3644 7.46533 16.9497 8.05064C17.5998 8.70065 18.1154 9.47233 18.4672 10.3216C18.8189 11.1709 19 12.0811 19 13.0004C19 13.2146 18.9902 13.4283 18.9706 13.6409C19.176 13.7062 19.3743 13.7936 19.5619 13.9019C19.9031 14.0989 20.2021 14.3611 20.4419 14.6737C20.5561 14.8225 20.6559 14.9814 20.74 15.1481C20.9123 14.4468 21 13.7258 21 13.0004C21 11.8185 20.7672 10.6482 20.3149 9.55624C19.8626 8.46431 19.1997 7.47216 18.364 6.63643C17.5282 5.8007 16.5361 5.13777 15.4441 4.68548C15.1384 4.55881 14.8264 4.44936 14.5098 4.35742C14.612 4.51351 14.6996 4.67916 14.7713 4.85235C14.9221 5.21632 14.9997 5.60643 14.9997 6.0004C14.9997 6.21704 14.9762 6.43251 14.93 6.64312ZM18.2303 19.4952C18.0438 19.5057 17.8564 19.4988 17.6703 19.4743C17.2797 19.4229 16.9031 19.295 16.5619 19.0981C16.3744 18.9898 16.1996 18.8618 16.0404 18.7166C15.6168 19.016 15.1603 19.2681 14.6788 19.4675C13.8295 19.8193 12.9193 20.0004 12 20.0004C11.0807 20.0004 10.1705 19.8193 9.32122 19.4676C8.8396 19.2681 8.38294 19.0159 7.95927 18.7164C7.79998 18.8617 7.62511 18.9897 7.4375 19.0981C7.09632 19.295 6.71967 19.4229 6.32908 19.4743C6.14324 19.4988 5.95597 19.5057 5.76972 19.4953C6.57682 20.2695 7.52157 20.8869 8.55585 21.3153C9.64778 21.7676 10.8181 22.0004 12 22.0004C13.1819 22.0004 14.3522 21.7676 15.4442 21.3153C16.4784 20.8869 17.4232 20.2695 18.2303 19.4952Z" fill="#191919"/>
</svg>
