<svg width="24" height="24" viewBox="0 0 24 24" fill="none" xmlns="http://www.w3.org/2000/svg">
<g id="ic:round-navigate-next">
<path id="Vector" d="M14.6895 17.29C14.7822 17.1975 14.8557 17.0876 14.9059 16.9666C14.9561 16.8457 14.9819 16.716 14.9819 16.585C14.9819 16.454 14.9561 16.3244 14.9059 16.2034C14.8557 16.0824 14.7822 15.9725 14.6895 15.88L10.8095 12L14.6895 8.12001C14.8765 7.93303 14.9815 7.67944 14.9815 7.41501C14.9815 7.15058 14.8765 6.89699 14.6895 6.71001C14.5025 6.52303 14.2489 6.41799 13.9845 6.41799C13.7201 6.41799 13.4665 6.52303 13.2795 6.71001L8.68949 11.3C8.59679 11.3925 8.52324 11.5024 8.47306 11.6234C8.42288 11.7444 8.39705 11.874 8.39705 12.005C8.39705 12.136 8.42288 12.2657 8.47306 12.3866C8.52324 12.5076 8.59679 12.6175 8.68949 12.71L13.2795 17.3C13.6595 17.68 14.2995 17.68 14.6895 17.29Z"/>
</g>
</svg>
