<svg width="138" height="139" viewBox="0 0 138 139" fill="none" xmlns="http://www.w3.org/2000/svg">
<path d="M77.5938 59.1875C81.5134 59.187 85.287 60.6745 88.1521 63.3494C91.0171 66.0243 92.7598 69.6871 93.0281 73.5975L93.0625 74.6562V122.781C93.063 126.701 91.5755 130.475 88.9006 133.34C86.2257 136.205 82.5629 137.947 78.6525 138.216L77.5938 138.25H15.7188C11.7991 138.25 8.02548 136.763 5.16044 134.088C2.29541 131.413 0.552652 127.75 0.284376 123.84L0.25 122.781V74.6562C0.249519 70.7366 1.73703 66.963 4.41191 64.0979C7.0868 61.2329 10.7496 59.4902 14.66 59.2219L15.7188 59.1875H77.5938ZM132.594 59.1875C133.84 59.1876 135.044 59.6388 135.983 60.4578C136.922 61.2767 137.532 62.4081 137.702 63.6425L137.75 64.3438V122.781C137.75 126.701 136.263 130.475 133.588 133.34C130.913 136.205 127.25 137.947 123.34 138.216L122.281 138.25H108.531C107.225 138.25 105.967 137.753 105.013 136.861C104.058 135.97 103.478 134.749 103.389 133.445C103.3 132.142 103.709 130.853 104.533 129.84C105.357 128.826 106.536 128.164 107.83 127.986L108.531 127.938H122.281C123.527 127.937 124.731 127.486 125.67 126.667C126.609 125.848 127.22 124.717 127.389 123.482L127.438 122.781V64.3438C127.438 62.9762 127.981 61.6647 128.948 60.6977C129.915 59.7307 131.226 59.1875 132.594 59.1875ZM77.5938 69.5H15.7188C14.4727 69.5001 13.2689 69.9513 12.3299 70.7703C11.3908 71.5892 10.7801 72.7206 10.6106 73.955L10.5625 74.6562V122.781C10.5625 125.394 12.5012 127.553 15.0175 127.889L15.7188 127.938H77.5938C78.8398 127.937 80.0436 127.486 80.9827 126.667C81.9217 125.848 82.5324 124.717 82.7019 123.482L82.75 122.781V74.6562C82.75 73.2887 82.2068 71.9772 81.2398 71.0102C80.2728 70.0432 78.9613 69.5 77.5938 69.5ZM60.4062 107.312C61.7738 107.312 63.0853 107.856 64.0523 108.823C65.0193 109.79 65.5625 111.101 65.5625 112.469C65.5625 115.081 63.225 117.625 60.4062 117.625H32.9062C31.5387 117.625 30.2272 117.082 29.2602 116.115C28.2932 115.148 27.75 113.836 27.75 112.469C27.75 109.856 30.0875 107.312 32.9062 107.312H60.4062ZM27.75 79.8125C29.5734 79.8125 31.322 80.5368 32.6114 81.8261C33.9007 83.1155 34.625 84.8641 34.625 86.6875C34.625 88.5109 33.9007 90.2595 32.6114 91.5489C31.322 92.8382 29.5734 93.5625 27.75 93.5625C25.9266 93.5625 24.178 92.8382 22.8886 91.5489C21.5993 90.2595 20.875 88.5109 20.875 86.6875C20.875 84.8641 21.5993 83.1155 22.8886 81.8261C24.178 80.5368 25.9266 79.8125 27.75 79.8125ZM65.5625 79.8125C67.3859 79.8125 69.1345 80.5368 70.4239 81.8261C71.7132 83.1155 72.4375 84.8641 72.4375 86.6875C72.4375 88.5109 71.7132 90.2595 70.4239 91.5489C69.1345 92.8382 67.3859 93.5625 65.5625 93.5625C63.7391 93.5625 61.9905 92.8382 60.7011 91.5489C59.4118 90.2595 58.6875 88.5109 58.6875 86.6875C58.6875 84.8641 59.4118 83.1155 60.7011 81.8261C61.9905 80.5368 63.7391 79.8125 65.5625 79.8125ZM46.6562 79.8125C48.4796 79.8125 50.2283 80.5368 51.5176 81.8261C52.8069 83.1155 53.5312 84.8641 53.5312 86.6875C53.5312 88.5109 52.8069 90.2595 51.5176 91.5489C50.2283 92.8382 48.4796 93.5625 46.6562 93.5625C44.8329 93.5625 43.0842 92.8382 41.7949 91.5489C40.5056 90.2595 39.7812 88.5109 39.7812 86.6875C39.7812 84.8641 40.5056 83.1155 41.7949 81.8261C43.0842 80.5368 44.8329 79.8125 46.6562 79.8125ZM132.594 0.75C133.369 0.749981 134.135 0.923824 134.835 1.25875L135.131 1.41687C135.326 1.52818 135.515 1.65219 135.694 1.78813L136.244 2.2625L136.595 2.65437L136.664 2.75062L136.904 3.08062C137.327 3.72225 137.599 4.45065 137.702 5.21187L137.75 5.90625V40.2812C137.75 41.5877 137.253 42.8452 136.361 43.7998C135.47 44.7544 134.249 45.3349 132.945 45.4239C131.642 45.513 130.353 45.104 129.34 44.2795C128.326 43.4551 127.664 42.2767 127.486 40.9825L127.438 40.2812V18.35L96.7063 49.0812C95.785 49.9953 94.5529 50.5284 93.256 50.5741C91.959 50.6197 90.6925 50.1747 89.7092 49.3276C88.7259 48.4806 88.0982 47.294 87.9514 46.0045C87.8045 44.7151 88.1493 43.4177 88.9169 42.3713L89.4188 41.7938L120.136 11.0625H98.2188C96.9727 11.0624 95.7689 10.6112 94.8299 9.79223C93.8908 8.97325 93.2801 7.84193 93.1106 6.6075L93.0625 5.90625C93.0626 4.66024 93.5138 3.4564 94.3328 2.51735C95.1517 1.57831 96.2831 0.967582 97.5175 0.798125L98.2188 0.75H132.594ZM74.1562 0.75C75.4627 0.7504 76.7202 1.24668 77.6748 2.13856C78.6294 3.03044 79.2099 4.25143 79.2989 5.5548C79.388 6.85817 78.979 8.14676 78.1545 9.16018C77.3301 10.1736 76.1517 10.8363 74.8575 11.0144L74.1562 11.0625H15.7188C14.4727 11.0626 13.2689 11.5138 12.3299 12.3328C11.3908 13.1518 10.7801 14.2831 10.6106 15.5175L10.5625 16.2188V43.7188C10.5621 45.0252 10.0658 46.2827 9.17394 47.2373C8.28206 48.1919 7.06107 48.7724 5.7577 48.8614C4.45433 48.9505 3.16574 48.5415 2.15232 47.717C1.1389 46.8926 0.476197 45.7142 0.298125 44.42L0.25 43.7188V16.2188C0.249519 12.2991 1.73703 8.52548 4.41191 5.66044C7.0868 2.79541 10.7496 1.05265 14.66 0.784376L15.7188 0.75H74.1562Z" fill="#EF4343"/>
</svg>
