<svg width="24" height="24" viewBox="0 0 24 24" fill="none" stroke='none' xmlns="http://www.w3.org/2000/svg">
<g id="history">
<path id="Vector" d="M3.42856 5.13486V10.2777H8.57141" stroke-width="2" stroke-linecap="round" stroke-linejoin="round"/>
<path id="Vector_2" d="M5.57999 14.5634C6.13575 16.1409 7.18913 17.495 8.58141 18.4217C9.97368 19.3485 11.6294 19.7976 13.2992 19.7015C14.9689 19.6054 16.5622 18.9693 17.839 17.8889C19.1157 16.8086 20.0068 15.3425 20.3779 13.7117C20.749 12.0809 20.5801 10.3737 19.8965 8.84722C19.213 7.32078 18.0519 6.05782 16.5881 5.24865C15.1244 4.43948 13.4373 4.12794 11.7811 4.36095C10.1249 4.59397 8.58934 5.35893 7.4057 6.54057L3.42856 10.2777" stroke-width="2" stroke-linecap="round" stroke-linejoin="round"/>
<path id="Vector_3" d="M12.8571 8.57144V12.8572L15.4286 14.1429"  stroke-width="2" stroke-linecap="round" stroke-linejoin="round"/>
</g>
</svg>
