<svg width="24" height="25" viewBox="0 0 24 25" fill="none" xmlns="http://www.w3.org/2000/svg">
<path d="M11.9999 15.0714C13.4201 15.0714 14.5713 13.9202 14.5713 12.5C14.5713 11.0799 13.4201 9.92859 11.9999 9.92859C10.5797 9.92859 9.42847 11.0799 9.42847 12.5C9.42847 13.9202 10.5797 15.0714 11.9999 15.0714Z" stroke="#E6E6E6" stroke-width="1.5" stroke-linecap="round" stroke-linejoin="round"/>
<path d="M18.343 15.0714C18.2289 15.3299 18.1948 15.6167 18.2452 15.8948C18.2957 16.1728 18.4282 16.4294 18.6258 16.6314L18.6772 16.6828C18.8366 16.8421 18.9631 17.0311 19.0493 17.2392C19.1356 17.4473 19.18 17.6704 19.18 17.8957C19.18 18.121 19.1356 18.3441 19.0493 18.5522C18.9631 18.7603 18.8366 18.9493 18.6772 19.1086C18.518 19.2679 18.329 19.3944 18.1209 19.4807C17.9127 19.5669 17.6897 19.6113 17.4644 19.6113C17.2391 19.6113 17.016 19.5669 16.8079 19.4807C16.5998 19.3944 16.4107 19.2679 16.2515 19.1086L16.2001 19.0571C15.9981 18.8595 15.7415 18.727 15.4635 18.6766C15.1854 18.6261 14.8986 18.6602 14.6401 18.7743C14.3866 18.8829 14.1704 19.0633 14.0181 19.2933C13.8658 19.5233 13.7841 19.7927 13.783 20.0686V20.2143C13.783 20.6689 13.6023 21.105 13.2809 21.4265C12.9594 21.7479 12.5233 21.9286 12.0687 21.9286C11.614 21.9286 11.178 21.7479 10.8565 21.4265C10.535 21.105 10.3544 20.6689 10.3544 20.2143V20.1371C10.3478 19.8534 10.2559 19.5783 10.0908 19.3474C9.92574 19.1166 9.69502 18.9408 9.42868 18.8428C9.17015 18.7287 8.88337 18.6947 8.60531 18.7451C8.32726 18.7955 8.07069 18.9281 7.86868 19.1257L7.81725 19.1771C7.65804 19.3365 7.46897 19.463 7.26086 19.5492C7.05275 19.6355 6.82967 19.6799 6.60439 19.6799C6.37911 19.6799 6.15603 19.6355 5.94792 19.5492C5.73981 19.463 5.55074 19.3365 5.39153 19.1771C5.23214 19.0179 5.1057 18.8288 5.01943 18.6207C4.93316 18.4126 4.88876 18.1896 4.88876 17.9643C4.88876 17.739 4.93316 17.5159 5.01943 17.3078C5.1057 17.0997 5.23214 16.9106 5.39153 16.7514L5.44296 16.7C5.64056 16.498 5.77312 16.2414 5.82354 15.9633C5.87395 15.6853 5.83992 15.3985 5.72582 15.14C5.61716 14.8865 5.43675 14.6703 5.20679 14.518C4.97683 14.3657 4.70735 14.2839 4.43153 14.2828H4.28582C3.83116 14.2828 3.39513 14.1022 3.07364 13.7807C2.75214 13.4592 2.57153 13.0232 2.57153 12.5686C2.57153 12.1139 2.75214 11.6779 3.07364 11.3564C3.39513 11.0349 3.83116 10.8543 4.28582 10.8543H4.36296C4.64667 10.8476 4.92182 10.7558 5.15265 10.5907C5.38347 10.4256 5.55929 10.1949 5.65725 9.92855C5.77135 9.67003 5.80538 9.38325 5.75497 9.10519C5.70455 8.82714 5.57199 8.57056 5.37439 8.36855L5.32296 8.31713C5.16357 8.15791 5.03713 7.96885 4.95086 7.76074C4.86459 7.55263 4.82018 7.32955 4.82018 7.10427C4.82018 6.87898 4.86459 6.65591 4.95086 6.4478C5.03713 6.23969 5.16357 6.05062 5.32296 5.89141C5.48217 5.73202 5.67124 5.60558 5.87935 5.51931C6.08746 5.43304 6.31054 5.38863 6.53582 5.38863C6.7611 5.38863 6.98418 5.43304 7.19229 5.51931C7.4004 5.60558 7.58947 5.73202 7.74868 5.89141L7.8001 5.94284C8.00212 6.14044 8.25869 6.273 8.53674 6.32341C8.8148 6.37383 9.10158 6.3398 9.3601 6.2257H9.42868C9.68219 6.11704 9.89841 5.93663 10.0507 5.70667C10.203 5.4767 10.2847 5.20723 10.2858 4.93141V4.7857C10.2858 4.33104 10.4664 3.895 10.7879 3.57351C11.1094 3.25202 11.5454 3.07141 12.0001 3.07141C12.4548 3.07141 12.8908 3.25202 13.2123 3.57351C13.5338 3.895 13.7144 4.33104 13.7144 4.7857V4.86284C13.7155 5.13866 13.7972 5.40813 13.9495 5.6381C14.1018 5.86806 14.318 6.04847 14.5715 6.15713C14.8301 6.27122 15.1168 6.30526 15.3949 6.25484C15.6729 6.20443 15.9295 6.07187 16.1315 5.87427L16.183 5.82284C16.3422 5.66345 16.5312 5.53701 16.7394 5.45074C16.9475 5.36447 17.1705 5.32006 17.3958 5.32006C17.6211 5.32006 17.8442 5.36447 18.0523 5.45074C18.2604 5.53701 18.4495 5.66345 18.6087 5.82284C18.7681 5.98205 18.8945 6.17112 18.9808 6.37923C19.067 6.58734 19.1115 6.81041 19.1115 7.0357C19.1115 7.26098 19.067 7.48405 18.9808 7.69217C18.8945 7.90028 18.7681 8.08934 18.6087 8.24855L18.5572 8.29998C18.3596 8.50199 18.2271 8.75857 18.1767 9.03662C18.1263 9.31467 18.1603 9.60145 18.2744 9.85998V9.92855C18.383 10.1821 18.5635 10.3983 18.7934 10.5506C19.0234 10.7029 19.2929 10.7846 19.5687 10.7857H19.7144C20.169 10.7857 20.6051 10.9663 20.9266 11.2878C21.2481 11.6093 21.4287 12.0453 21.4287 12.5C21.4287 12.9546 21.2481 13.3907 20.9266 13.7122C20.6051 14.0337 20.169 14.2143 19.7144 14.2143H19.6372C19.3614 14.2154 19.092 14.2971 18.862 14.4494C18.632 14.6017 18.4516 14.8179 18.343 15.0714V15.0714Z" stroke="#E6E6E6" stroke-width="1.5" stroke-linecap="round" stroke-linejoin="round"/>
</svg>
