<svg width="24" height="25" viewBox="0 0 24 25" fill="none" xmlns="http://www.w3.org/2000/svg">
<path d="M7.20996 15.5L2.65996 7.64C2.46376 7.30087 2.37149 6.91159 2.3946 6.52048C2.41771 6.12937 2.55518 5.75366 2.78996 5.44L4.39996 3.3C4.58625 3.05161 4.82782 2.85 5.10553 2.71115C5.38324 2.57229 5.68947 2.5 5.99996 2.5H18C18.3104 2.5 18.6167 2.57229 18.8944 2.71115C19.1721 2.85 19.4137 3.05161 19.6 3.3L21.2 5.44C21.4363 5.75265 21.5755 6.12784 21.6004 6.51897C21.6253 6.9101 21.5347 7.29992 21.34 7.64L16.79 15.5M11 12.5L5.11996 2.7M13 12.5L18.88 2.7M7.99996 7.5H16" stroke="#E6E6E6" stroke-linecap="round" stroke-linejoin="round"/>
<path d="M12 22.5C14.7614 22.5 17 20.2614 17 17.5C17 14.7386 14.7614 12.5 12 12.5C9.23858 12.5 7 14.7386 7 17.5C7 20.2614 9.23858 22.5 12 22.5Z" stroke="#E6E6E6" stroke-linecap="round" stroke-linejoin="round"/>
<path d="M12 18.5V16.5H11.5" stroke="#E6E6E6" stroke-linecap="round" stroke-linejoin="round"/>
</svg>
