<svg width="24" height="25" viewBox="0 0 24 25" fill="none" xmlns="http://www.w3.org/2000/svg">
<path d="M16.7143 19.9285V18.2142C16.7143 17.3049 16.3531 16.4328 15.7101 15.7899C15.0671 15.1469 14.195 14.7856 13.2857 14.7856H6.42857C5.51926 14.7856 4.64719 15.1469 4.00421 15.7899C3.36122 16.4328 3 17.3049 3 18.2142V19.9285" stroke="#E6E6E6" stroke-linecap="round" stroke-linejoin="round"/>
<path d="M9.85826 11.3571C11.7518 11.3571 13.2868 9.82212 13.2868 7.92857C13.2868 6.03502 11.7518 4.5 9.85826 4.5C7.96471 4.5 6.42969 6.03502 6.42969 7.92857C6.42969 9.82212 7.96471 11.3571 9.85826 11.3571Z" stroke="#E6E6E6" stroke-linecap="round" stroke-linejoin="round"/>
<path d="M21.8566 19.9284V18.2141C21.856 17.4545 21.6032 16.7165 21.1378 16.1161C20.6723 15.5157 20.0207 15.0869 19.2852 14.897" stroke="#E6E6E6" stroke-linecap="round" stroke-linejoin="round"/>
<path d="M15.8574 4.61133C16.5949 4.80016 17.2486 5.22907 17.7154 5.83045C18.1822 6.43183 18.4356 7.17147 18.4356 7.93276C18.4356 8.69404 18.1822 9.43368 17.7154 10.0351C17.2486 10.6364 16.5949 11.0654 15.8574 11.2542" stroke="#E6E6E6" stroke-linecap="round" stroke-linejoin="round"/>
</svg>
