<svg width="16" height="16" viewBox="0 0 17 18" fill="none" xmlns="http://www.w3.org/2000/svg">
<path d="M5.83333 2.33333L5.12623 1.62622L5.83333 0.919114L6.54044 1.62622L5.83333 2.33333ZM6.83333 12.3333C6.83333 12.8856 6.38562 13.3333 5.83333 13.3333C5.28105 13.3333 4.83333 12.8856 4.83333 12.3333L6.83333 12.3333ZM1.79289 4.95955L5.12623 1.62622L6.54044 3.04043L3.20711 6.37377L1.79289 4.95955ZM6.54044 1.62622L9.87377 4.95955L8.45956 6.37377L5.12623 3.04043L6.54044 1.62622ZM6.83333 2.33333L6.83333 12.3333L4.83333 12.3333L4.83333 2.33333L6.83333 2.33333Z" fill="#B3B3B3"/>
<path d="M11.1668 15.6667L10.4597 16.3738L11.1668 17.0809L11.8739 16.3738L11.1668 15.6667ZM12.1668 5.66667C12.1668 5.11439 11.7191 4.66667 11.1668 4.66667C10.6145 4.66667 10.1668 5.11439 10.1668 5.66667L12.1668 5.66667ZM7.12639 13.0404L10.4597 16.3738L11.8739 14.9596L8.5406 11.6262L7.12639 13.0404ZM11.8739 16.3738L15.2073 13.0404L13.7931 11.6262L10.4597 14.9596L11.8739 16.3738ZM12.1668 15.6667L12.1668 5.66667L10.1668 5.66667L10.1668 15.6667L12.1668 15.6667Z" fill="#B3B3B3"/>
</svg>
