<svg width="24" height="25" viewBox="0 0 24 25" fill="none" xmlns="http://www.w3.org/2000/svg">
<g clip-path="url(#clip0_315_28184)">
<path d="M8.33333 6.05604C8.33333 6.54567 8.14018 7.01525 7.79636 7.36147C7.45255 7.70769 6.98623 7.90219 6.5 7.90219C6.01377 7.90219 5.54745 7.70769 5.20364 7.36147C4.85982 7.01525 4.66667 6.54567 4.66667 6.05604C4.66667 5.56641 4.85982 5.09683 5.20364 4.75061C5.54745 4.40439 6.01377 4.20989 6.5 4.20989C6.98623 4.20989 7.45255 4.40439 7.79636 4.75061C8.14018 5.09683 8.33333 5.56641 8.33333 6.05604ZM1 6.05604C1 4.58715 1.57946 3.17842 2.61091 2.13976C3.64236 1.10109 5.04131 0.517578 6.5 0.517578H17.5C18.2223 0.517578 18.9375 0.660835 19.6048 0.939168C20.2721 1.2175 20.8784 1.62546 21.3891 2.13976C21.8998 2.65405 22.3049 3.26461 22.5813 3.93656C22.8577 4.60852 23 5.32872 23 6.05604C23 6.78336 22.8577 7.50356 22.5813 8.17552C22.3049 8.84747 21.8998 9.45803 21.3891 9.97232C20.8784 10.4866 20.2721 10.8946 19.6048 11.1729C18.9375 11.4512 18.2223 11.5945 17.5 11.5945H6.5C5.04131 11.5945 3.64236 11.011 2.61091 9.97232C1.57946 8.93366 1 7.52493 1 6.05604ZM6.5 2.36373C5.52754 2.36373 4.59491 2.75274 3.90727 3.44518C3.21964 4.13763 2.83333 5.07678 2.83333 6.05604C2.83333 7.0353 3.21964 7.97445 3.90727 8.6669C4.59491 9.35934 5.52754 9.74835 6.5 9.74835H17.5C18.4725 9.74835 19.4051 9.35934 20.0927 8.6669C20.7804 7.97445 21.1667 7.0353 21.1667 6.05604C21.1667 5.07678 20.7804 4.13763 20.0927 3.44518C19.4051 2.75274 18.4725 2.36373 17.5 2.36373H6.5ZM17.5 20.8253C17.9862 20.8253 18.4525 20.6308 18.7964 20.2845C19.1402 19.9383 19.3333 19.4687 19.3333 18.9791C19.3333 18.4895 19.1402 18.0199 18.7964 17.6737C18.4525 17.3275 17.9862 17.133 17.5 17.133C17.0138 17.133 16.5475 17.3275 16.2036 17.6737C15.8598 18.0199 15.6667 18.4895 15.6667 18.9791C15.6667 19.4687 15.8598 19.9383 16.2036 20.2845C16.5475 20.6308 17.0138 20.8253 17.5 20.8253ZM1 18.9791C1 17.5102 1.57946 16.1015 2.61091 15.0628C3.64236 14.0242 5.04131 13.4407 6.5 13.4407H17.5C18.2223 13.4407 18.9375 13.5839 19.6048 13.8622C20.2721 14.1406 20.8784 14.5485 21.3891 15.0628C21.8998 15.5771 22.3049 16.1877 22.5813 16.8596C22.8577 17.5316 23 18.2518 23 18.9791C23 19.7064 22.8577 20.4266 22.5813 21.0986C22.3049 21.7706 21.8998 22.3811 21.3891 22.8954C20.8784 23.4097 20.2721 23.8177 19.6048 24.096C18.9375 24.3743 18.2223 24.5176 17.5 24.5176H6.5C5.04131 24.5176 3.64236 23.9341 2.61091 22.8954C1.57946 21.8567 1 20.448 1 18.9791ZM6.5 15.2868C5.52754 15.2868 4.59491 15.6758 3.90727 16.3683C3.21964 17.0607 2.83333 17.9999 2.83333 18.9791C2.83333 19.9584 3.21964 20.8975 3.90727 21.59C4.59491 22.2824 5.52754 22.6714 6.5 22.6714H17.5C18.4725 22.6714 19.4051 22.2824 20.0927 21.59C20.7804 20.8975 21.1667 19.9584 21.1667 18.9791C21.1667 17.9999 20.7804 17.0607 20.0927 16.3683C19.4051 15.6758 18.4725 15.2868 17.5 15.2868H6.5Z" fill="black"/>
</g>
<defs>
<clipPath id="clip0_315_28184">
<rect width="24" height="24" fill="white" transform="translate(0 0.517578)"/>
</clipPath>
</defs>
</svg>
