<svg width="24" height="25" viewBox="0 0 24 25" fill="none" xmlns="http://www.w3.org/2000/svg">
<path fill-rule="evenodd" clip-rule="evenodd" d="M12 2.5C9.55912 2.5 7.4608 3.95744 6.52373 6.04534C6.44011 6.23166 6.38425 6.35598 6.34206 6.44471C6.33167 6.46657 6.32326 6.48381 6.31654 6.49729L6.29677 6.49799C6.23318 6.49989 6.14598 6.5 6 6.5C3.79086 6.5 2 8.29086 2 10.5C2 12.7091 3.79086 14.5 6 14.5H6.17157L8.17157 12.5H6C4.89543 12.5 4 11.6046 4 10.5C4 9.39543 4.89543 8.5 6 8.5L6.06419 8.5001H6.0642C6.27177 8.50057 6.51342 8.50111 6.71431 8.46068C6.92683 8.41791 7.17254 8.34692 7.414 8.19062C7.65546 8.03433 7.82083 7.83923 7.94687 7.66285C8.03371 7.54134 8.10219 7.40047 8.14829 7.3035C8.20111 7.19243 8.26605 7.04772 8.34352 6.87511L8.34839 6.86427C8.97472 5.46871 10.3753 4.5 12 4.5C13.6247 4.5 15.0253 5.46871 15.6516 6.86427L15.6565 6.87511C15.7339 7.04772 15.7989 7.19243 15.8517 7.3035C15.8978 7.40047 15.9663 7.54134 16.0531 7.66285C16.1792 7.83923 16.3445 8.03433 16.586 8.19062C16.8275 8.34692 17.0732 8.41791 17.2857 8.46068C17.4866 8.50111 17.7282 8.50057 17.9358 8.5001H17.9358L18 8.5C19.1046 8.5 20 9.39543 20 10.5C20 11.6046 19.1046 12.5 18 12.5H15.8284L17.8284 14.5H18C20.2091 14.5 22 12.7091 22 10.5C22 8.29086 20.2091 6.5 18 6.5C17.854 6.5 17.7668 6.49989 17.7032 6.49799L17.6835 6.49729C17.6767 6.48381 17.6683 6.46657 17.6579 6.44471C17.6158 6.35598 17.5599 6.23166 17.4763 6.04534C16.5392 3.95744 14.4409 2.5 12 2.5ZM6.29756 6.53369C6.29755 6.53369 6.29761 6.53357 6.29774 6.53336L6.29777 6.53333L6.29756 6.53369ZM17.7024 6.53369C17.7024 6.53369 17.7024 6.53358 17.7022 6.53333L17.7023 6.53336L17.7024 6.53369Z" fill="white"/>
<path d="M12 12.5L11.2929 11.7929L12 11.0858L12.7071 11.7929L12 12.5ZM13 21.5C13 22.0523 12.5523 22.5 12 22.5C11.4477 22.5 11 22.0523 11 21.5L13 21.5ZM7.29289 15.7929L11.2929 11.7929L12.7071 13.2071L8.70711 17.2071L7.29289 15.7929ZM12.7071 11.7929L16.7071 15.7929L15.2929 17.2071L11.2929 13.2071L12.7071 11.7929ZM13 12.5L13 21.5L11 21.5L11 12.5L13 12.5Z" fill="white"/>
</svg>
