<svg width="44" height="32" viewBox="0 0 44 32" fill="none" xmlns="http://www.w3.org/2000/svg">
<path d="M24.1992 31.4V22.6H30.7992L21.9992 11.6L13.1992 22.6H19.7992V31.4H24.1992Z" fill="#4598F9"/>
<path d="M11 31.4H15.4V27H11C7.3612 27 4.4 24.0388 4.4 20.4C4.4 17.3112 7.0378 14.3368 10.2806 13.767L11.5588 13.5426L11.9812 12.315C13.5278 7.80277 17.369 4.99998 22 4.99998C28.0654 4.99998 33 9.93458 33 16V18.2H35.2C37.6266 18.2 39.6 20.1734 39.6 22.6C39.6 25.0266 37.6266 27 35.2 27H28.6V31.4H35.2C40.0532 31.4 44 27.4532 44 22.6C43.9966 20.6279 43.3326 18.7139 42.1139 17.1634C40.8953 15.613 39.1922 14.5155 37.2768 14.0464C36.3154 6.47398 29.832 0.599976 22 0.599976C15.9368 0.599976 10.67 4.14417 8.2654 9.72997C3.5398 11.1424 0 15.604 0 20.4C0 26.4654 4.9346 31.4 11 31.4Z" fill="#4598F9"/>
</svg>
