<svg width="362" height="58" viewBox="0 0 362 58" fill="none" xmlns="http://www.w3.org/2000/svg">
<path d="M123.035 12.1475C123.035 6.00068 118.033 0.998413 111.886 0.998413H80.3996C74.2528 0.998413 69.2505 6.00068 69.2505 12.1475C69.2505 15.4188 70.7024 18.4816 73.1117 20.5694C70.7024 22.6572 69.2505 25.7201 69.2505 28.9913C69.2505 32.2626 70.7024 35.3254 73.1117 37.4132C70.7024 39.501 69.2505 42.5638 69.2505 45.8351C69.2505 51.9819 74.2528 56.9842 80.3996 56.9842H111.886C118.033 56.9842 123.035 51.9819 123.035 45.8351C123.035 42.5638 121.584 39.501 119.174 37.4132C121.584 35.3254 123.035 32.2626 123.035 28.9913C123.035 25.7201 121.584 22.6572 119.174 20.5694C121.584 18.4816 123.035 15.4188 123.035 12.1475ZM121.142 28.9913C121.142 32.7324 118.906 35.9542 115.705 37.4132C118.906 38.8722 121.142 42.094 121.142 45.8351C121.142 50.9398 116.987 55.0907 111.886 55.0907H80.3996C75.2949 55.0907 71.144 50.9398 71.144 45.8351C71.144 42.094 73.3802 38.8722 76.5808 37.4132C73.3802 35.9542 71.144 32.7324 71.144 28.9913C71.144 25.2502 73.3802 22.0284 76.5808 20.5694C73.3802 19.1104 71.144 15.8886 71.144 12.1475C71.144 7.04282 75.2949 2.89192 80.3996 2.89192H111.886C116.991 2.89192 121.142 7.04282 121.142 12.1475C121.142 15.8886 118.906 19.1104 115.705 20.5694C118.909 22.0284 121.142 25.2502 121.142 28.9913Z" fill="#05060F"/>
<path d="M111.887 4.76636H80.4003C76.3342 4.76636 73.0347 8.06235 73.0347 12.132C73.0347 16.1981 76.3306 19.4976 80.4003 19.4976H111.887C115.953 19.4976 119.253 16.2016 119.253 12.132C119.253 8.06589 115.953 4.76636 111.887 4.76636Z" fill="#05060F"/>
<path d="M80.4003 21.6232C76.3342 21.6232 73.0347 24.9191 73.0347 28.9888C73.0347 33.0584 76.3306 36.3544 80.4003 36.3544H111.887C115.953 36.3544 119.253 33.0584 119.253 28.9888C119.253 24.9191 115.957 21.6232 111.887 21.6232H80.4003Z" fill="#05060F"/>
<path d="M80.4003 38.4712C76.3342 38.4712 73.0347 41.7672 73.0347 45.8368C73.0347 49.9029 76.3306 53.2024 80.4003 53.2024H111.887C115.953 53.2024 119.253 49.9064 119.253 45.8368C119.253 41.7707 115.957 38.4712 111.887 38.4712H80.4003Z" fill="#05060F"/>
<path d="M227.769 33.4269H209.335V13.2871C209.335 6.7905 204.05 1.50208 197.55 1.50208C191.054 1.50208 185.765 6.78697 185.765 13.2871V44.4665C185.765 51.3764 191.386 56.9968 198.296 56.9968H227.769C234.265 56.9968 239.554 51.712 239.554 45.2118C239.554 38.7117 234.265 33.4269 227.769 33.4269ZM227.769 55.0998H198.296C192.431 55.0998 187.659 50.3272 187.659 44.4629V13.2836C187.659 7.8291 192.096 3.39207 197.55 3.39207C203.005 3.39207 207.442 7.8291 207.442 13.2836V35.3168H227.769C233.223 35.3168 237.66 39.7539 237.66 45.2083C237.66 50.6628 233.223 55.0998 227.769 55.0998Z" fill="#05060F"/>
<path d="M227.766 37.1948H205.545V13.268C205.545 8.85215 201.963 5.27002 197.547 5.27002C193.128 5.27002 189.549 8.85215 189.549 13.268V44.4474C189.549 49.2765 193.464 53.1907 198.293 53.1907H227.766C232.182 53.1907 235.764 49.6086 235.764 45.1928C235.764 40.7769 232.185 37.1948 227.766 37.1948Z" fill="#05060F"/>
<path d="M361.89 32.6744V13.2871C361.89 10.1465 360.668 7.18616 358.446 4.95704C356.217 2.72792 353.253 1.50208 350.102 1.50208C343.605 1.50208 338.32 6.79048 338.32 13.2906V22.4614H329.782V13.2906C329.782 10.1501 328.56 7.18969 326.338 4.96058C324.108 2.73146 321.145 1.50561 317.993 1.50561C311.497 1.50561 306.212 6.79402 306.212 13.2941V34.2535C306.212 40.7501 311.5 46.0349 318 46.0349H322.346C322.54 48.8752 323.737 51.5177 325.769 53.549C328.005 55.7745 330.965 57.0004 334.106 57.0004C340.33 57.0004 345.442 52.1535 345.866 46.0349H350.211C353.363 46.0349 356.323 44.8091 358.548 42.5835C360.297 40.8349 361.435 38.6269 361.841 36.2C361.947 35.5429 362 34.8894 362 34.25C362 33.7236 361.965 33.1972 361.89 32.6744ZM359.972 35.882C359.633 37.9169 358.679 39.768 357.21 41.2376C355.341 43.1064 352.857 44.1344 350.211 44.1344H344.001V45.2048C344.001 50.6592 339.564 55.0998 334.106 55.0998C331.467 55.0998 328.984 54.0718 327.108 52.203C325.239 50.3342 324.211 47.8507 324.211 45.2048V44.1344H318C312.546 44.1344 308.105 39.6973 308.105 34.2464V13.2871C308.105 7.83264 312.542 3.39207 317.993 3.39207C320.639 3.39207 323.126 4.42006 324.995 6.29238C326.86 8.1647 327.888 10.6517 327.888 13.2871V24.3514H340.214V13.2871C340.214 7.83264 344.651 3.39207 350.102 3.39207C352.748 3.39207 355.235 4.42006 357.104 6.29238C358.969 8.1647 359.997 10.6517 359.997 13.2871V32.8086C360.068 33.2891 360.106 33.7695 360.106 34.2464C360.106 34.7834 360.064 35.331 359.972 35.882Z" fill="#05060F"/>
<path d="M358.108 13.2722C358.108 11.0643 357.214 9.06476 355.765 7.61283C354.296 6.14324 352.25 5.2424 350 5.27067C345.588 5.32719 342.108 9.07536 342.108 13.4877V25.5977C342.108 25.9474 341.825 26.2335 341.472 26.2335H326.631C326.282 26.2335 325.996 25.9509 325.996 25.5977V13.2757C325.996 11.0678 325.102 9.06829 323.653 7.61637C322.184 6.14677 320.138 5.24594 317.888 5.2742C313.476 5.33072 309.996 9.07889 309.996 13.4912V34.2139C309.996 38.6403 313.585 42.2295 318.012 42.2295H325.992C326.052 42.2295 326.102 42.2789 326.102 42.339V45.1934C326.102 47.4084 326.995 49.4079 328.444 50.8527C329.913 52.3188 331.945 53.2161 334.184 53.1949C338.607 53.1525 342.105 49.3973 342.105 44.9744V42.3143C342.105 42.2754 342.133 42.2471 342.172 42.2436C342.949 42.2365 350.208 42.2295 350.208 42.2295C352.416 42.2295 354.423 41.3357 355.868 39.8873C357.016 38.7392 357.821 37.2343 358.1 35.5598C358.171 35.1288 358.21 34.6837 358.21 34.235C358.21 33.797 358.171 33.366 358.1 32.9492C358.1 32.9492 358.1 32.9491 358.1 32.9456V13.2722H358.108Z" fill="#05060F"/>
<path d="M286.26 8.52473C284.504 4.41976 280.48 1.76672 276.008 1.76672C274.496 1.76672 273.019 2.07053 271.62 2.67109L270.486 3.15506C267.756 4.32438 265.64 6.48991 264.527 9.25599C263.432 12.0044 263.46 15.0072 264.601 17.7238C264.34 17.7061 264.078 17.6991 263.817 17.6991C259.33 17.6991 255.317 20.2673 253.586 24.2451L245.645 41.1666L245.62 41.2161L245.578 41.315L245.574 41.3256C244.451 43.9574 244.426 46.9002 245.51 49.6168C246.662 52.4994 248.895 54.7745 251.802 56.018C253.314 56.6609 254.886 56.9859 256.483 56.9859C256.755 56.9859 256.999 56.9789 257.232 56.9612C258.207 56.9683 263.117 56.9718 288.955 56.9789C290.87 56.9789 292.763 56.4808 294.434 55.5375C299.995 53.0717 302.563 46.5539 300.161 40.9511L286.26 8.52473ZM293.579 53.8454C292.173 54.6579 290.577 55.0889 288.955 55.0889C262.358 55.0818 257.935 55.0748 257.165 55.0712C256.939 55.0889 256.709 55.096 256.483 55.096C255.126 55.096 253.809 54.8169 252.544 54.2835C247.665 52.1956 245.32 46.7059 247.319 42.0533L247.333 42.0215L247.347 41.9968L255.31 25.0294C256.737 21.7299 260.076 19.5961 263.817 19.5961C265.173 19.5961 266.498 19.8681 267.756 20.4086C267.78 20.4228 267.798 20.4263 267.826 20.4404L266.374 17.0526C265.403 14.7811 265.371 12.2623 266.286 9.96607C267.208 7.67689 268.96 5.87169 271.232 4.9002L272.366 4.41623C273.528 3.91812 274.75 3.66377 276.008 3.66377C279.717 3.66377 283.063 5.86462 284.522 9.27365L298.423 41.7001C300.426 46.3808 298.257 51.8247 293.579 53.8454Z" fill="#05060F"/>
<path d="M282.785 10.0317C281.181 6.29409 276.853 4.5631 273.116 6.1634L271.982 6.64737C268.244 8.25121 266.513 12.5787 268.114 16.3163L276.687 36.3183C276.754 36.4702 276.641 36.6433 276.472 36.6433H269.389C269.219 36.6433 269.106 36.4667 269.177 36.3112L271.247 31.9024C272.833 28.2037 270.936 23.8409 267.011 22.1593C263.087 20.4778 258.621 22.1134 257.035 25.8121L249.058 42.8078C247.472 46.5065 249.369 50.8694 253.294 52.5509C254.541 53.0844 255.841 53.2822 257.088 53.1868C257.215 53.1939 288.956 53.2045 288.956 53.2045C290.334 53.2045 291.62 52.8194 292.726 52.1588L292.81 52.1235C296.548 50.5232 298.283 46.1956 296.679 42.4581L282.785 10.0317Z" fill="#05060F"/>
<path d="M52.9376 1.79431H52.4889C46.3315 1.79431 41.3398 6.78598 41.3398 12.9434V18.85L40.6722 18.3025C38.3689 16.4196 35.4579 15.381 32.4728 15.381C32.3032 15.381 32.1372 15.3845 31.9676 15.3916C31.7981 15.3845 31.632 15.381 31.4625 15.381C28.4774 15.381 25.5664 16.4196 23.2631 18.3025L22.7474 18.7229V12.9434C22.7474 6.78598 17.7557 1.79431 11.5983 1.79431H11.1496C4.99215 1.79431 0.000488281 6.78598 0.000488281 12.9434V45.8361C0.000488281 51.9936 4.99215 56.9853 11.1496 56.9853H11.5983C13.248 56.9853 14.8483 56.6249 16.3532 55.9113L16.3815 55.8972L16.438 55.8689C19.5715 54.2651 26.9477 48.5881 31.3565 45.1155C31.738 44.8152 32.2715 44.8117 32.6565 45.1084C38.8034 49.8351 45.7981 55.0564 47.8894 55.982C49.3378 56.6426 50.8922 56.9817 52.4925 56.9817H52.9411C59.0986 56.9817 64.0902 51.9901 64.0902 45.8326V12.9399C64.0867 6.78597 59.095 1.79431 52.9376 1.79431ZM62.1932 45.8361C62.1932 50.9479 58.0494 55.0917 52.9376 55.0917H52.4889C51.1607 55.0917 49.8712 54.8091 48.6524 54.2545C46.547 53.3219 37.9838 46.8253 33.3595 43.2679C32.5505 42.6461 31.4236 42.6532 30.6217 43.2856C26.545 46.5074 18.6989 52.5871 15.5972 54.1768L15.569 54.1909L15.5407 54.205C14.2901 54.795 12.9619 55.0953 11.5912 55.0953H11.1425C6.03075 55.0953 1.88692 50.9515 1.88692 45.8397V12.947C1.88692 7.83518 6.03075 3.69136 11.1425 3.69136H11.5912C16.703 3.69136 20.8468 7.83518 20.8468 12.947V22.7219L24.4536 19.7686C26.4178 18.1612 28.9048 17.2745 31.4554 17.2745C31.625 17.2745 31.791 17.278 31.9606 17.2851C32.1301 17.278 32.2962 17.2745 32.4658 17.2745C35.0163 17.2745 37.4998 18.1612 39.4675 19.7686L43.2298 22.8455V12.9434C43.2298 7.83165 47.3736 3.68782 52.4854 3.68782H52.934C58.0458 3.68782 62.1897 7.83165 62.1897 12.9434V45.8361H62.1932Z" fill="#05060F"/>
<path d="M52.9336 5.5946H52.485C48.4189 5.5946 45.1193 8.8906 45.1193 12.9602V23.5088C45.1193 24.8477 43.565 25.586 42.5264 24.7382L38.266 21.2514C36.4219 19.743 34.1645 19.0788 31.9601 19.1989C29.7522 19.0788 27.4984 19.743 25.6543 21.2514L21.5458 24.6145C20.5107 25.4624 18.9528 24.724 18.9528 23.3852V12.9638C18.9528 8.89767 15.6569 5.59814 11.5872 5.59814H11.1386C7.07246 5.59814 3.77295 8.89414 3.77295 12.9638V45.8565C3.77295 49.9226 7.06892 53.2221 11.1386 53.2221H11.5872C12.7106 53.2221 13.7739 52.9642 14.7278 52.512C17.8648 50.9047 26.4456 44.1961 30.1832 41.2322C31.2289 40.402 32.7055 40.3914 33.7618 41.2075C37.8173 44.3339 47.465 51.6995 49.4221 52.5474C50.3548 52.9748 51.3898 53.2221 52.485 53.2221H52.9336C56.9997 53.2221 60.2992 49.9261 60.2992 45.8565V12.9638C60.2957 8.8906 56.9997 5.5946 52.9336 5.5946Z" fill="#05060F"/>
<path d="M176.836 12.7617V27.0726C176.836 31.3259 173.444 34.7738 169.258 34.7738C169.17 34.7738 151.898 34.7773 147.359 34.7773C146.758 34.7773 146.271 35.2719 146.271 35.8831V45.6297C146.271 49.9042 142.936 53.5146 138.736 53.5358H138.693C136.598 53.5358 134.712 52.6703 133.338 51.2785C131.971 49.883 131.116 47.9542 131.116 45.8346V30.0153C131.116 25.7549 134.514 22.3035 138.707 22.3035H160.585C161.189 22.3035 161.677 21.8054 161.677 21.1942V20.8303C161.677 20.2192 161.189 19.7246 160.589 19.7246H138.043C134.217 19.7246 131.116 16.5699 131.116 12.6805C131.116 8.42713 134.507 4.97925 138.693 4.97925C139.039 4.97925 169.258 5.05696 169.258 5.05696C173.444 5.06049 176.836 8.51191 176.836 12.7617Z" fill="#05060F"/>
<path d="M169.258 2.43601C168.227 2.43247 139.086 2.35828 138.69 2.35828C133.101 2.35828 128.555 6.97902 128.555 12.6596C128.555 16.217 130.519 19.4635 133.515 21.1274C130.487 22.9644 128.555 26.3169 128.555 29.9909V45.8102C128.555 48.555 129.607 51.1374 131.526 53.0875C133.447 55.0375 135.991 56.1114 138.69 56.1114H138.746C144.307 56.0796 148.825 51.3706 148.825 45.6053V37.3529L169.255 37.3494C174.843 37.3494 179.39 32.7287 179.39 27.0481V12.7408C179.39 7.05674 174.843 2.43601 169.258 2.43601ZM178.538 27.0517C178.538 32.2518 174.377 36.4874 169.255 36.4874H168.499C165.263 36.4874 152.598 36.491 147.97 36.491V45.6088C147.97 50.8972 143.83 55.2212 138.739 55.2495H138.69C136.221 55.2495 133.889 54.2638 132.126 52.4798C130.374 50.6923 129.406 48.3219 129.406 45.8137V29.9944C129.406 25.8859 132.003 22.3779 135.613 21.0814C132.031 20.0146 129.406 16.6444 129.406 12.6596C129.406 7.4524 133.571 3.22379 138.69 3.22379C139.036 3.22379 168.025 3.29798 169.255 3.30152C174.377 3.30152 178.538 7.53364 178.538 12.7373V27.0517Z" fill="#05060F"/>
<path d="M169.254 1.58457C168.226 1.58103 139.085 1.50684 138.689 1.50684C132.63 1.50684 127.699 6.51619 127.699 12.6772C127.699 16.0827 129.349 19.2267 131.966 21.1732C129.327 23.254 127.699 26.497 127.699 30.012V45.8313C127.699 48.8058 128.84 51.6037 130.917 53.7198C133.001 55.8358 135.76 57.0016 138.685 57.0016H138.735C144.769 56.9698 149.672 51.8686 149.672 45.6264V38.2396C152.364 38.2396 156.25 38.2396 159.853 38.236H169.246C175.305 38.236 180.237 33.2267 180.237 27.0657V12.7549C180.244 6.59389 175.312 1.58457 169.254 1.58457ZM178.537 27.0657C178.537 32.2658 174.376 36.5015 169.254 36.5015H168.498C165.262 36.5015 152.597 36.505 147.969 36.505V45.6229C147.969 50.9113 143.829 55.2353 138.738 55.2635H138.689C136.22 55.2635 133.888 54.2779 132.125 52.4939C130.373 50.7064 129.405 48.3359 129.405 45.8278V30.0085C129.405 25.9 132.002 22.392 135.612 21.0955C132.03 20.0286 129.405 16.6585 129.405 12.6736C129.405 7.46647 133.57 3.23785 138.689 3.23785C139.035 3.23785 168.024 3.31205 169.254 3.31558C174.376 3.31558 178.537 7.54771 178.537 12.7513V27.0657Z" fill="#05060F"/>
</svg>
