<svg width="156" height="24" viewBox="0 0 156 24" fill="none" xmlns="http://www.w3.org/2000/svg">
<path d="M52.7331 4.7785C52.7331 2.14397 50.5891 0 47.9546 0H34.4594C31.8249 0 29.6809 2.14397 29.6809 4.7785C29.6809 6.18056 30.3032 7.49328 31.3358 8.38811C30.3032 9.28294 29.6809 10.5957 29.6809 11.9977C29.6809 13.3998 30.3032 14.7125 31.3358 15.6073C30.3032 16.5022 29.6809 17.8149 29.6809 19.217C29.6809 21.8515 31.8249 23.9955 34.4594 23.9955H47.9546C50.5891 23.9955 52.7331 21.8515 52.7331 19.217C52.7331 17.8149 52.1108 16.5022 51.0782 15.6073C52.1108 14.7125 52.7331 13.3998 52.7331 11.9977C52.7331 10.5957 52.1108 9.28294 51.0782 8.38811C52.1108 7.49328 52.7331 6.18056 52.7331 4.7785ZM51.9215 11.9977C51.9215 13.6012 50.9631 14.982 49.5913 15.6073C50.9631 16.2327 51.9215 17.6135 51.9215 19.217C51.9215 21.4048 50.1409 23.1839 47.9546 23.1839H34.4594C32.2715 23.1839 30.4925 21.4048 30.4925 19.217C30.4925 17.6135 31.4509 16.2327 32.8227 15.6073C31.4509 14.982 30.4925 13.6012 30.4925 11.9977C30.4925 10.3943 31.4509 9.01343 32.8227 8.38811C31.4509 7.76278 30.4925 6.38193 30.4925 4.7785C30.4925 2.59062 32.2715 0.811555 34.4594 0.811555H47.9546C50.1425 0.811555 51.9215 2.59062 51.9215 4.7785C51.9215 6.38193 50.9631 7.76278 49.5913 8.38811C50.9646 9.01343 51.9215 10.3943 51.9215 11.9977Z" fill="white"/>
<path d="M47.9546 1.62158H34.4594C32.7167 1.62158 31.3025 3.03424 31.3025 4.77849C31.3025 6.52121 32.7151 7.93538 34.4594 7.93538H47.9546C49.6973 7.93538 51.1115 6.52273 51.1115 4.77849C51.1115 3.03576 49.6973 1.62158 47.9546 1.62158Z" fill="white"/>
<path d="M34.4594 8.84082C32.7167 8.84082 31.3025 10.2535 31.3025 11.9977C31.3025 13.742 32.7151 15.1546 34.4594 15.1546H47.9546C49.6973 15.1546 51.1115 13.742 51.1115 11.9977C51.1115 10.2535 49.6988 8.84082 47.9546 8.84082H34.4594Z" fill="white"/>
<path d="M34.4594 16.0616C32.7167 16.0616 31.3025 17.4742 31.3025 19.2185C31.3025 20.9612 32.7151 22.3754 34.4594 22.3754H47.9546C49.6973 22.3754 51.1115 20.9627 51.1115 19.2185C51.1115 17.4758 49.6988 16.0616 47.9546 16.0616H34.4594Z" fill="white"/>
<path d="M97.6201 13.8949H89.7195V5.26302C89.7195 2.47859 87.4544 0.211975 84.6685 0.211975C81.884 0.211975 79.6174 2.47708 79.6174 5.26302V18.6265C79.6174 21.588 82.0264 23.997 84.9879 23.997H97.6201C100.405 23.997 102.671 21.7319 102.671 18.9459C102.671 16.16 100.405 13.8949 97.6201 13.8949ZM97.6201 23.1839H84.9879C82.4745 23.1839 80.429 21.1384 80.429 18.625V5.2615C80.429 2.92373 82.3307 1.02202 84.6685 1.02202C87.0062 1.02202 88.9079 2.92373 88.9079 5.2615V14.7049H97.6201C99.9579 14.7049 101.86 16.6067 101.86 18.9444C101.86 21.2822 99.9579 23.1839 97.6201 23.1839Z" fill="white"/>
<path d="M97.62 15.5165H88.0963V5.26148C88.0963 3.36886 86.561 1.83356 84.6684 1.83356C82.7743 1.83356 81.2405 3.36886 81.2405 5.26148V18.6249C81.2405 20.6947 82.9181 22.3723 84.9879 22.3723H97.62C99.5126 22.3723 101.048 20.837 101.048 18.9444C101.048 17.0518 99.5142 15.5165 97.62 15.5165Z" fill="white"/>
<path d="M155.111 13.5739V5.26455C155.111 3.91851 154.587 2.64969 153.634 1.6943C152.679 0.738898 151.409 0.213501 150.058 0.213501C147.274 0.213501 145.008 2.48011 145.008 5.26605V9.19666H141.349V5.26605C141.349 3.92002 140.825 2.65121 139.873 1.69581C138.917 0.740414 137.647 0.215017 136.296 0.215017C133.512 0.215017 131.247 2.48162 131.247 5.26757V14.2507C131.247 17.0352 133.513 19.3002 136.299 19.3002H138.162C138.245 20.5176 138.758 21.6501 139.629 22.5207C140.587 23.4746 141.856 24 143.202 24C145.87 24 148.061 21.9227 148.243 19.3002H150.105C151.456 19.3002 152.724 18.7749 153.678 17.821C154.428 17.0715 154.915 16.1252 155.089 15.085C155.135 14.8034 155.158 14.5233 155.158 14.2492C155.158 14.0236 155.142 13.798 155.111 13.5739ZM154.288 14.9487C154.143 15.8208 153.734 16.6142 153.104 17.2441C152.303 18.0451 151.239 18.4857 150.105 18.4857H147.443V18.9444C147.443 21.2822 145.541 23.1854 143.202 23.1854C142.071 23.1854 141.007 22.7448 140.203 21.9439C139.402 21.1429 138.961 20.0785 138.961 18.9444V18.4857H136.299C133.962 18.4857 132.058 16.584 132.058 14.2477V5.26455C132.058 2.92678 133.96 1.02355 136.296 1.02355C137.43 1.02355 138.496 1.46415 139.297 2.26662C140.097 3.06909 140.537 4.13503 140.537 5.26455V10.0067H145.82V5.26455C145.82 2.92678 147.722 1.02355 150.058 1.02355C151.192 1.02355 152.258 1.46415 153.059 2.26662C153.858 3.06909 154.299 4.13503 154.299 5.26455V13.6315C154.329 13.8374 154.346 14.0433 154.346 14.2477C154.346 14.4778 154.328 14.7125 154.288 14.9487Z" fill="white"/>
<path d="M153.489 5.26456C153.489 4.31824 153.106 3.46126 152.485 2.83896C151.855 2.2091 150.979 1.823 150.014 1.83512C148.123 1.85934 146.632 3.4658 146.632 5.35691V10.5472C146.632 10.6971 146.51 10.8198 146.359 10.8198H139.998C139.848 10.8198 139.726 10.6987 139.726 10.5472V5.26606C139.726 4.31975 139.343 3.46278 138.722 2.84048C138.092 2.21061 137.215 1.82452 136.251 1.83663C134.36 1.86086 132.868 3.46732 132.868 5.35843V14.2401C132.868 16.1373 134.407 17.6756 136.304 17.6756H139.724C139.75 17.6756 139.771 17.6968 139.771 17.7226V18.946C139.771 19.8953 140.154 20.7523 140.775 21.3715C141.405 21.9999 142.276 22.3845 143.235 22.3754C145.131 22.3572 146.63 20.7477 146.63 18.8521V17.712C146.63 17.6953 146.642 17.6832 146.659 17.6817C146.992 17.6787 150.103 17.6756 150.103 17.6756C151.05 17.6756 151.91 17.2926 152.529 16.6718C153.021 16.1797 153.366 15.5347 153.486 14.817C153.516 14.6323 153.533 14.4415 153.533 14.2492C153.533 14.0615 153.516 13.8767 153.486 13.6981C153.486 13.6981 153.486 13.6981 153.486 13.6966V5.26456H153.489Z" fill="white"/>
<path d="M122.692 3.22503C121.94 1.46564 120.215 0.328552 118.298 0.328552C117.65 0.328552 117.017 0.458764 116.418 0.716161L115.932 0.923592C114.761 1.42476 113.854 2.35291 113.377 3.53845C112.908 4.71642 112.92 6.0034 113.409 7.16774C113.297 7.16017 113.185 7.15715 113.073 7.15715C111.15 7.15715 109.43 8.25789 108.688 9.96277L105.284 17.2153L105.274 17.2365L105.256 17.2789L105.254 17.2834C104.773 18.4114 104.762 19.6727 105.227 20.837C105.72 22.0725 106.677 23.0476 107.923 23.5806C108.572 23.8562 109.245 23.9954 109.93 23.9954C110.046 23.9954 110.151 23.9924 110.251 23.9848C110.669 23.9879 112.773 23.9894 123.847 23.9924C124.668 23.9924 125.479 23.7789 126.196 23.3747C128.579 22.3178 129.68 19.5243 128.65 17.1229L122.692 3.22503ZM125.829 22.6494C125.227 22.9977 124.542 23.1824 123.847 23.1824C112.448 23.1793 110.552 23.1763 110.222 23.1748C110.125 23.1824 110.027 23.1854 109.93 23.1854C109.348 23.1854 108.784 23.0658 108.241 22.8372C106.15 21.9423 105.145 19.5894 106.002 17.5953L106.008 17.5817L106.014 17.5711L109.427 10.2989C110.039 8.88474 111.47 7.97022 113.073 7.97022C113.654 7.97022 114.222 8.0868 114.761 8.31846C114.772 8.32452 114.779 8.32603 114.791 8.33208L114.169 6.88006C113.753 5.9065 113.739 4.82695 114.131 3.84278C114.526 2.86164 115.277 2.08794 116.251 1.67156L116.737 1.46413C117.235 1.25064 117.759 1.14162 118.298 1.14162C119.888 1.14162 121.322 2.08491 121.947 3.54601L127.905 17.4439C128.764 19.4501 127.834 21.7833 125.829 22.6494Z" fill="white"/>
<path d="M121.201 3.86551C120.513 2.26359 118.658 1.52169 117.057 2.20757L116.57 2.41501C114.969 3.10241 114.227 4.95718 114.913 6.5591L118.587 15.1319C118.616 15.197 118.568 15.2712 118.495 15.2712H115.459C115.386 15.2712 115.338 15.1955 115.368 15.1289L116.256 13.2393C116.935 11.654 116.122 9.78413 114.44 9.06341C112.758 8.3427 110.844 9.04374 110.164 10.629L106.745 17.9133C106.066 19.4986 106.879 21.3685 108.561 22.0892C109.095 22.3179 109.653 22.4026 110.187 22.3618C110.242 22.3648 123.846 22.3693 123.846 22.3693C124.436 22.3693 124.987 22.2043 125.461 21.9211L125.498 21.906C127.1 21.2201 127.843 19.3654 127.156 17.7634L121.201 3.86551Z" fill="white"/>
<path d="M22.6888 0.340698H22.4965C19.8574 0.340698 17.718 2.48012 17.718 5.1192V7.65077L17.4318 7.41608C16.4446 6.60907 15.197 6.16392 13.9176 6.16392C13.8449 6.16392 13.7738 6.16544 13.7011 6.16847C13.6284 6.16544 13.5573 6.16392 13.4846 6.16392C12.2052 6.16392 10.9575 6.60907 9.97034 7.41608L9.74929 7.59626V5.1192C9.74929 2.48012 7.60987 0.340698 4.97079 0.340698H4.7785C2.13942 0.340698 0 2.48012 0 5.1192V19.217C0 21.8561 2.13942 23.9955 4.7785 23.9955H4.97079C5.67788 23.9955 6.36376 23.841 7.00877 23.5352L7.02088 23.5291L7.0451 23.517C8.38811 22.8296 11.5496 20.3965 13.4392 18.9081C13.6027 18.7794 13.8313 18.7779 13.9963 18.9051C16.6309 20.9309 19.6288 23.1688 20.5251 23.5655C21.1459 23.8486 21.8121 23.994 22.498 23.994H22.6903C25.3294 23.994 27.4688 21.8545 27.4688 19.2155V5.11768C27.4673 2.48012 25.3279 0.340698 22.6888 0.340698ZM26.6557 19.217C26.6557 21.4079 24.8797 23.1839 22.6888 23.1839H22.4965C21.9272 23.1839 21.3745 23.0628 20.8522 22.8251C19.9498 22.4254 16.2796 19.6409 14.2976 18.1162C13.9509 17.8497 13.4679 17.8528 13.1242 18.1238C11.3769 19.5047 8.01413 22.1104 6.68476 22.7918L6.67264 22.7978L6.66052 22.8039C6.12453 23.0567 5.55523 23.1854 4.96776 23.1854H4.77547C2.58457 23.1854 0.808524 21.4094 0.808524 19.2185V5.12071C0.808524 2.92981 2.58457 1.15377 4.77547 1.15377H4.96776C7.15866 1.15377 8.93471 2.92981 8.93471 5.12071V9.31023L10.4806 8.04444C11.3224 7.35552 12.3884 6.97549 13.4815 6.97549C13.5542 6.97549 13.6254 6.97699 13.6981 6.98002C13.7707 6.97699 13.8419 6.97549 13.9146 6.97549C15.0078 6.97549 16.0722 7.35552 16.9155 8.04444L18.528 9.36321V5.1192C18.528 2.92829 20.3041 1.15225 22.495 1.15225H22.6873C24.8782 1.15225 26.6542 2.92829 26.6542 5.1192V19.217H26.6557Z" fill="white"/>
<path d="M22.6889 1.96381H22.4966C20.7539 1.96381 19.3397 3.37647 19.3397 5.12071V9.64181C19.3397 10.2157 18.6735 10.5321 18.2283 10.1687L16.4023 8.6743C15.612 8.02778 14.6445 7.74313 13.6997 7.79461C12.7533 7.74313 11.7873 8.02778 10.997 8.6743L9.23609 10.1157C8.79246 10.4791 8.12474 10.1627 8.12474 9.58882V5.12223C8.12474 3.3795 6.71208 1.96532 4.96784 1.96532H4.77555C3.03282 1.96532 1.61865 3.37798 1.61865 5.12223V19.22C1.61865 20.9627 3.0313 22.3769 4.77555 22.3769H4.96784C5.44932 22.3769 5.90507 22.2664 6.31388 22.0726C7.6584 21.3837 11.3361 18.5084 12.9381 17.238C13.3862 16.8822 14.0191 16.8777 14.4718 17.2274C16.21 18.5674 20.345 21.7243 21.1838 22.0877C21.5836 22.2709 22.0272 22.3769 22.4966 22.3769H22.6889C24.4316 22.3769 25.8458 20.9643 25.8458 19.22V5.12223C25.8443 3.37647 24.4316 1.96381 22.6889 1.96381Z" fill="white"/>
<path d="M75.7884 5.03136V11.165C75.7884 12.988 74.3348 14.4657 72.5406 14.4657C72.5028 14.4657 65.1003 14.4672 63.1547 14.4672C62.8973 14.4672 62.6884 14.6792 62.6884 14.9411V19.1186C62.6884 20.9506 61.259 22.498 59.4588 22.5071H59.4406C58.5427 22.5071 57.7342 22.1362 57.1452 21.5396C56.5593 20.9415 56.1929 20.1148 56.1929 19.2064V12.4262C56.1929 10.6002 57.6494 9.12094 59.4467 9.12094H68.8235C69.0824 9.12094 69.2914 8.90745 69.2914 8.64551V8.48957C69.2914 8.22763 69.0824 8.01565 68.825 8.01565H59.162C57.5222 8.01565 56.1929 6.66356 56.1929 4.99654C56.1929 3.17356 57.6464 1.6958 59.4406 1.6958C59.589 1.6958 72.5406 1.72911 72.5406 1.72911C74.3348 1.73062 75.7884 3.2099 75.7884 5.03136Z" fill="white"/>
<path d="M72.5421 0.616262C72.1 0.614748 59.6102 0.582947 59.4406 0.582947C57.0453 0.582947 55.0967 2.56339 55.0967 4.99807C55.0967 6.52277 55.9385 7.91422 57.2225 8.62736C55.9249 9.41469 55.0967 10.8516 55.0967 12.4262V19.2064C55.0967 20.3828 55.5479 21.4896 56.37 22.3254C57.1937 23.1612 58.2839 23.6215 59.4406 23.6215H59.4649C61.848 23.6079 63.7846 21.5896 63.7846 19.1186V15.5816L72.5406 15.5801C74.9359 15.5801 76.8846 13.5997 76.8846 11.165V5.03289C76.8846 2.5967 74.9359 0.616262 72.5421 0.616262ZM76.5197 11.1665C76.5197 13.3953 74.7361 15.2107 72.5406 15.2107H72.2166C70.8297 15.2107 65.4016 15.2122 63.4182 15.2122V19.1201C63.4182 21.3867 61.6436 23.2399 59.4618 23.2521H59.4406C58.3823 23.2521 57.383 22.8296 56.6274 22.065C55.8764 21.2989 55.4616 20.2829 55.4616 19.2079V12.4278C55.4616 10.6669 56.5744 9.16335 58.1218 8.60768C56.5866 8.15042 55.4616 6.70597 55.4616 4.99807C55.4616 2.76628 57.2467 0.953903 59.4406 0.953903C59.589 0.953903 72.0137 0.985704 72.5406 0.987218C74.7361 0.987218 76.5197 2.8011 76.5197 5.03137V11.1665Z" fill="white"/>
<path d="M72.5406 0.24529C72.1 0.243776 59.6102 0.211975 59.4406 0.211975C56.8439 0.211975 54.7302 2.35898 54.7302 4.99957C54.7302 6.45916 55.4373 7.80671 56.5593 8.64098C55.4282 9.53278 54.7302 10.9227 54.7302 12.4292V19.2094C54.7302 20.4843 55.2193 21.6834 56.1096 22.5904C57.0029 23.4973 58.1854 23.997 59.4391 23.997H59.4603C62.0464 23.9833 64.1479 21.797 64.1479 19.1216V15.9556C65.3017 15.9556 66.9672 15.9556 68.5116 15.9541H72.5375C75.1342 15.9541 77.2479 13.8071 77.2479 11.1665V5.03287C77.2509 2.39228 75.1373 0.24529 72.5406 0.24529ZM76.5196 11.1665C76.5196 13.3952 74.736 15.2106 72.5406 15.2106H72.2166C70.8296 15.2106 65.4016 15.2122 63.4181 15.2122V19.1201C63.4181 21.3867 61.6436 23.2399 59.4618 23.252H59.4406C58.3822 23.252 57.3829 22.8296 56.6274 22.065C55.8764 21.2988 55.4615 20.2829 55.4615 19.2079V12.4277C55.4615 10.6668 56.5744 9.16334 58.1218 8.60766C56.5865 8.1504 55.4615 6.70596 55.4615 4.99805C55.4615 2.76627 57.2467 0.953888 59.4406 0.953888C59.589 0.953888 72.0137 0.985689 72.5406 0.987203C74.736 0.987203 76.5196 2.80109 76.5196 5.03136V11.1665Z" fill="white"/>
</svg>
