<svg width="56" height="48" viewBox="0 0 56 48" fill="none" xmlns="http://www.w3.org/2000/svg">
<path d="M46.0402 0H45.6508C40.2953 0 35.9542 4.34107 35.9542 9.69658V14.8321L35.3721 14.356C33.3695 12.7175 30.8372 11.815 28.2408 11.8141C28.0938 11.8141 27.9478 11.817 27.8008 11.8228C27.6547 11.817 27.5077 11.8141 27.3617 11.8141C24.7652 11.8141 22.233 12.7165 20.2304 14.356L19.7826 14.7221V9.69658C19.7826 4.34107 15.4415 0 10.086 0H9.69657C4.34107 0 0 4.34107 0 9.69658V38.3034C0 43.6589 4.34107 48 9.69657 48H10.086C11.521 48 12.9122 47.6855 14.2226 47.0673L14.2479 47.0557L14.2966 47.0313C17.0216 45.6352 23.4373 40.6993 27.2692 37.6794C27.6002 37.4185 28.0655 37.4165 28.3995 37.6735C33.7452 41.7848 39.829 46.3245 41.6466 47.1296C42.9064 47.705 44.2596 48 45.6508 48H46.0402C51.3957 48 55.7368 43.6589 55.7368 38.3034V9.69658C55.7368 4.34107 51.3957 0 46.0402 0ZM54.0905 38.3034C54.0905 42.7496 50.4865 46.3537 46.0402 46.3537H45.6508C44.4962 46.3537 43.3737 46.1084 42.3135 45.6245C40.4822 44.8136 33.0346 39.1631 29.0138 36.0681C28.3099 35.5269 27.3305 35.5327 26.6335 36.0827C23.0868 38.8846 16.2632 44.1739 13.5664 45.5554L13.5431 45.5671L13.5187 45.5788C12.4303 46.0928 11.2747 46.3537 10.085 46.3537H9.6956C5.24939 46.3537 1.6453 42.7496 1.6453 38.3034V9.69658C1.6453 5.25037 5.24939 1.64628 9.6956 1.64628H10.085C14.5312 1.64628 18.1353 5.25037 18.1353 9.69658V18.1967L21.2721 15.6294C22.9807 14.2304 25.1439 13.4603 27.3607 13.4603C27.5077 13.4603 27.6537 13.4642 27.8008 13.4701C27.9468 13.4632 28.0938 13.4603 28.2408 13.4603C30.4585 13.4603 32.6208 14.2304 34.3294 15.6294L37.6005 18.3067V9.69658C37.6005 5.25037 41.2046 1.64628 45.6508 1.64628H46.0402C50.4865 1.64628 54.0905 5.25037 54.0905 9.69658V38.3034Z" fill="white"/>
<path d="M46.0402 3.29248H45.6507C42.1138 3.29248 39.2467 6.15959 39.2467 9.69651V18.8693C39.2467 20.0337 37.8935 20.6743 36.9929 19.9373L33.2866 16.9037C31.6822 15.5904 29.7205 15.015 27.8007 15.1192C25.8818 15.015 23.9201 15.5914 22.3157 16.9037L18.7437 19.8273C17.8432 20.5643 16.4899 19.9237 16.4899 18.7593V9.69651C16.4899 6.15959 13.6228 3.29248 10.0859 3.29248H9.6965C6.15959 3.29248 3.29248 6.15959 3.29248 9.69651V38.3033C3.29248 41.8403 6.15959 44.7074 9.6965 44.7074H10.0859C11.0643 44.7074 11.9873 44.4815 12.8158 44.0901C15.5446 42.6921 23.0069 36.8586 26.2556 34.2816C27.1649 33.5602 28.4481 33.5514 29.3671 34.2602C32.8943 36.9783 41.2863 43.3833 42.9871 44.1232C43.7991 44.4951 44.6986 44.7084 45.6507 44.7084H46.0402C49.5771 44.7084 52.4442 41.8412 52.4442 38.3043V9.69651C52.4442 6.15959 49.5771 3.29248 46.0402 3.29248Z" fill="white"/>
</svg>
