<svg width="60" height="60" viewBox="0 0 60 60" fill="none" xmlns="http://www.w3.org/2000/svg">
<rect width="60" height="60" rx="12" fill="white"/>
<rect width="60" height="60" rx="12" fill="url(#paint0_linear_1_2)"/>
<path d="M41.0848 16H40.8472C37.5803 16 34.9322 18.6227 34.9322 21.8583V24.961L34.5771 24.6734C33.3554 23.6835 31.8108 23.1382 30.2269 23.1377C30.1372 23.1377 30.0482 23.1394 29.9585 23.1429C29.8694 23.1394 29.7797 23.1377 29.6906 23.1377C28.1068 23.1377 26.5621 23.6829 25.3405 24.6734L25.0673 24.8946V21.8583C25.0673 18.6227 22.4192 16 19.1523 16H18.9148C15.6478 16 12.9998 18.6227 12.9998 21.8583V39.1417C12.9998 42.3773 15.6478 45 18.9148 45H19.1523C20.0277 45 20.8763 44.81 21.6757 44.4365L21.6911 44.4295L21.7208 44.4148C23.3831 43.5713 27.2967 40.5892 29.6342 38.7646C29.8361 38.607 30.12 38.6058 30.3237 38.7611C33.5847 41.245 37.2958 43.9877 38.4046 44.4742C39.1731 44.8218 39.9986 45 40.8472 45H41.0848C44.3517 45 46.9998 42.3773 46.9998 39.1417V21.8583C46.9998 18.6227 44.3517 16 41.0848 16ZM45.9955 39.1417C45.9955 41.8279 43.797 44.0054 41.0848 44.0054H40.8472C40.1429 44.0054 39.4581 43.8572 38.8114 43.5648C37.6943 43.0749 33.1512 39.661 30.6985 37.7912C30.2691 37.4641 29.6716 37.4677 29.2464 37.8C27.0829 39.4928 22.9205 42.6884 21.2754 43.5231L21.2612 43.5301L21.2463 43.5372C20.5824 43.8477 19.8774 44.0054 19.1517 44.0054H18.9142C16.2019 44.0054 14.0034 41.8279 14.0034 39.1417V21.8583C14.0034 19.1721 16.2019 16.9946 18.9142 16.9946H19.1517C21.8639 16.9946 24.0625 19.1721 24.0625 21.8583V26.9938L25.9759 25.4428C27.0182 24.5975 28.3378 24.1323 29.6901 24.1323C29.7797 24.1323 29.8688 24.1346 29.9585 24.1382C30.0476 24.134 30.1372 24.1323 30.2269 24.1323C31.5798 24.1323 32.8988 24.5975 33.941 25.4428L35.9364 27.0603V21.8583C35.9364 19.1721 38.135 16.9946 40.8472 16.9946H41.0848C43.797 16.9946 45.9955 19.1721 45.9955 21.8583V39.1417Z" fill="white"/>
<path d="M41.085 17.9892H40.8474C38.6899 17.9892 36.9409 19.7215 36.9409 21.8583V27.4002C36.9409 28.1037 36.1154 28.4908 35.5661 28.0455L33.3052 26.2127C32.3265 25.4192 31.1298 25.0716 29.9587 25.1346C28.7882 25.0716 27.5915 25.4198 26.6128 26.2127L24.4339 27.979C23.8846 28.4243 23.0591 28.0373 23.0591 27.3338V21.8583C23.0591 19.7215 21.3101 17.9892 19.1525 17.9892H18.915C16.7574 17.9892 15.0085 19.7215 15.0085 21.8583V39.1416C15.0085 41.2785 16.7574 43.0107 18.915 43.0107H19.1525C19.7494 43.0107 20.3124 42.8743 20.8178 42.6378C22.4824 41.7932 27.0345 38.2688 29.0162 36.7118C29.5709 36.276 30.3536 36.2707 30.9143 36.6989C33.0659 38.3411 38.1851 42.2108 39.2226 42.6578C39.7179 42.8825 40.2666 43.0113 40.8474 43.0113H41.085C43.2425 43.0113 44.9915 41.2791 44.9915 39.1422V21.8583C44.9915 19.7215 43.2425 17.9892 41.085 17.9892Z" fill="white"/>
<defs>
<linearGradient id="paint0_linear_1_2" x1="6.25594" y1="1.82089" x2="59.7932" y2="46.9321" gradientUnits="userSpaceOnUse">
<stop stop-color="#120123"/>
<stop offset="1" stop-color="#4C0B8E"/>
</linearGradient>
</defs>
</svg>
